<svg id="Capa_1" enable-background="new 0 0 512 512" height="512" viewBox="0 0 512 512" width="512" xmlns="http://www.w3.org/2000/svg"><g><g><path d="m10.02 192.376c0 96.513 55.592 180.028 136.494 220.311v71.775h218.974v-71.77c16.075-8.004 31.157-17.704 44.995-28.885l15.349-12.733 52.436-73.143 7.319-17.072c10.589-27.457 16.394-57.292 16.394-88.483z" fill="#79dbc2"/><path d="m466.19 189.502c0-7.629 4.976-15.666 3.586-23.008-1.403-7.411-8.993-13.087-11.715-20.133-2.694-6.973-.86-16.252-4.749-22.795-3.798-6.39-12.834-9.269-17.682-15.183-4.7-5.734-5.693-15.15-11.298-20.375-5.419-5.051-14.895-5.428-21.086-9.948-5.985-4.37-9.187-13.288-15.826-17.11-6.427-3.7-15.757-2.024-22.736-5.166-6.769-3.048-11.672-11.159-18.904-13.64-7.029-2.411-15.886.961-23.301-.877-7.218-1.789-13.46-8.922-20.997-10.133-7.347-1.18-15.516 3.623-23.124 3.024-7.422-.584-14.731-6.62-22.36-6.62-7.628 0-14.937 6.036-22.358 6.62-7.608.598-15.777-4.204-23.124-3.024-7.537 1.211-13.78 8.344-20.998 10.133-7.416 1.838-16.274-1.534-23.303.878-7.233 2.481-12.136 10.593-18.906 13.641-6.979 3.142-16.31 1.466-22.738 5.167-6.639 3.823-9.84 12.741-15.825 17.111-6.19 4.519-15.666 4.897-21.085 9.947-5.605 5.224-6.597 14.641-11.297 20.375-4.848 5.914-13.884 8.794-17.682 15.184-3.889 6.544-2.055 15.822-4.748 22.795-2.721 7.045-10.311 12.721-11.714 20.131-1.39 7.341 3.586 15.378 3.586 23.006z" fill="#fffcfa"/></g><g><path d="m460.493 328.393c-4.301-3.464-10.596-2.786-14.06 1.515s-2.786 10.596 1.515 14.06 10.596 2.786 14.06-1.515c3.465-4.3 2.786-10.596-1.515-14.06z"/><path d="m509.066 185.291c-1.88-1.879-4.428-2.934-7.085-2.934h-24.32c.035-.125.069-.249.105-.375 1.439-5.126 3.07-10.935 1.856-17.353-1.222-6.449-4.865-11.272-8.078-15.527-1.77-2.343-3.441-4.556-4.135-6.351-.678-1.755-.916-4.508-1.168-7.422-.433-5.017-.973-11.261-4.313-16.882-3.226-5.428-8.097-8.701-12.394-11.589-2.513-1.689-4.887-3.284-6.153-4.828-1.168-1.426-2.224-4.007-3.342-6.741-1.964-4.803-4.19-10.247-8.873-14.612-4.484-4.18-9.91-6.002-14.697-7.611-2.923-.982-5.683-1.91-7.312-3.099-1.486-1.085-3.149-3.369-4.909-5.788-2.998-4.118-6.395-8.787-11.826-11.913-5.226-3.009-10.832-3.613-15.777-4.146-3.091-.333-6.01-.647-7.844-1.473-1.684-.759-3.787-2.685-6.013-4.726-3.709-3.4-7.913-7.252-13.753-9.256-5.655-1.94-11.231-1.503-16.152-1.117-3.11.244-6.048.474-7.99-.007-1.801-.447-4.336-2.058-6.787-3.615-4.214-2.679-8.991-5.715-15.032-6.685-5.877-.943-11.277.41-16.041 1.606-3.032.761-5.903 1.477-7.886 1.322-1.855-.146-4.626-1.332-7.306-2.478-4.57-1.956-9.751-4.173-15.84-4.173-6.088 0-11.268 2.217-15.839 4.173-2.679 1.147-5.45 2.332-7.304 2.478-1.99.155-4.854-.562-7.887-1.322-4.764-1.195-10.163-2.551-16.042-1.606-6.041.971-10.817 4.006-15.031 6.685-2.451 1.558-4.985 3.169-6.787 3.615-1.945.482-4.883.252-7.993.008-4.918-.385-10.494-.822-16.151 1.117-5.841 2.004-10.044 5.857-13.753 9.256-2.227 2.041-4.33 3.968-6.015 4.727-1.835.826-4.754 1.14-7.845 1.474-4.946.533-10.552 1.137-15.779 4.146-5.431 3.127-8.828 7.795-11.825 11.914-1.76 2.418-3.423 4.703-4.908 5.787-1.629 1.189-4.389 2.116-7.311 3.098-4.787 1.609-10.212 3.432-14.697 7.612-4.682 4.364-6.909 9.809-8.873 14.612-1.118 2.733-2.173 5.315-3.342 6.74-1.266 1.545-3.639 3.14-6.152 4.828-4.297 2.888-9.168 6.161-12.394 11.59-3.34 5.62-3.88 11.864-4.313 16.881-.251 2.914-.489 5.667-1.167 7.422-.693 1.795-2.365 4.007-4.134 6.35-3.214 4.255-6.857 9.078-8.078 15.528-1.215 6.416.417 12.226 1.857 17.352.035.125.069.249.104.373h-24.322c-5.534 0-10.02 4.486-10.02 10.02 0 68.38 26.629 132.667 74.98 181.02 18.41 18.41 39.136 33.661 61.513 45.502v65.564c0 5.534 4.486 10.02 10.02 10.02h218.973c5.533 0 10.02-4.486 10.02-10.02v-65.709c14.549-7.665 28.389-16.742 41.274-27.152.033-.027.067-.054.1-.082l15.349-12.733c4.259-3.533 4.847-9.85 1.314-14.109-3.533-4.258-9.851-4.849-14.109-1.314l-15.301 12.693c-41.75 33.714-94.356 52.281-148.133 52.281-63.027 0-122.282-24.544-166.849-69.112-42.198-42.198-66.445-97.562-68.904-156.83h471.507c-.308 7.405-.969 14.756-1.957 22.045h-233.797c-5.534 0-10.02 4.486-10.02 10.02s4.486 10.02 10.02 10.02h230.192c-2.495 11.068-5.791 21.952-9.889 32.602l-7.246 16.901c-2.18 5.086.175 10.977 5.261 13.157s10.977-.176 13.158-5.261l7.319-17.073c.048-.113.095-.228.139-.342 11.324-29.362 17.066-60.345 17.066-92.088 0-2.657-1.056-5.206-2.934-7.085zm-153.599 242.934v46.217h-198.934v-46.045c31.067 13.096 64.737 19.979 99.467 19.979 34.307 0 68.172-6.974 99.467-20.151zm-301.94-251.66c-.885-3.151-1.8-6.409-1.46-8.205.349-1.842 2.398-4.555 4.38-7.179 2.405-3.184 5.132-6.795 6.836-11.207 1.705-4.413 2.095-8.931 2.439-12.918.284-3.29.578-6.691 1.575-8.368.921-1.549 3.678-3.402 6.345-5.194 3.438-2.311 7.336-4.93 10.473-8.756 3.079-3.755 4.84-8.061 6.393-11.86 1.241-3.035 2.524-6.174 3.988-7.538 1.314-1.224 4.416-2.267 7.417-3.275 4.039-1.357 8.616-2.895 12.745-5.909 4.023-2.937 6.823-6.785 9.294-10.18 1.91-2.625 3.886-5.34 5.621-6.339 1.57-.904 4.802-1.252 7.927-1.589 4.304-.464 9.182-.989 13.926-3.125 4.622-2.082 8.184-5.346 11.326-8.226 2.375-2.176 4.831-4.427 6.716-5.074 1.728-.592 4.96-.339 8.083-.094 4.353.341 9.285.728 14.38-.535 4.973-1.232 9.087-3.847 12.717-6.155 2.704-1.719 5.501-3.497 7.459-3.811 1.817-.289 4.953.496 7.988 1.257 4.252 1.067 9.069 2.273 14.334 1.863 5.138-.404 9.643-2.332 13.616-4.032 2.938-1.257 5.976-2.557 7.955-2.557 1.98 0 5.019 1.3 7.957 2.557 3.975 1.7 8.478 3.628 13.617 4.032 5.257.41 10.079-.795 14.334-1.863 3.032-.761 6.162-1.552 7.986-1.257 1.959.315 4.756 2.092 7.461 3.812 3.629 2.307 7.743 4.921 12.715 6.154 5.094 1.262 10.025.876 14.378.534 3.124-.245 6.353-.498 8.083.095 1.886.647 4.341 2.897 6.716 5.074 3.142 2.88 6.703 6.144 11.325 8.225 4.744 2.136 9.621 2.661 13.926 3.125 3.124.337 6.355.684 7.925 1.588 1.736 1 3.711 3.714 5.621 6.339 2.472 3.395 5.272 7.243 9.296 10.181 4.128 3.014 8.706 4.552 12.745 5.909 3.001 1.008 6.104 2.051 7.418 3.275 1.463 1.364 2.747 4.502 3.987 7.537 1.554 3.799 3.314 8.105 6.393 11.861 3.137 3.826 7.034 6.445 10.473 8.755 2.666 1.792 5.424 3.645 6.345 5.194.997 1.678 1.291 5.079 1.574 8.368.345 3.987.736 8.505 2.44 12.919 1.704 4.412 4.431 8.022 6.838 11.207 1.981 2.624 4.03 5.337 4.38 7.178.34 1.797-.575 5.056-1.46 8.208-.511 1.819-1.05 3.756-1.481 5.792h-401.984c-.43-2.037-.97-3.974-1.481-5.793z"/><path d="m102.531 263.92c-1.378-5.358-6.838-8.584-12.2-7.207-5.359 1.378-8.586 6.84-7.207 12.2 11.122 43.237 44.674 77.907 87.563 90.479 5.468 1.604 11.294-1.831 12.581-7.366 1.185-5.1-1.925-10.392-6.944-11.864-36.146-10.596-64.421-39.81-73.793-76.242z"/><path d="m142.28 128.876c-3.436-4.338-9.737-5.068-14.075-1.633-4.338 3.436-5.069 9.738-1.633 14.075l11.599 14.643c1.978 2.497 4.905 3.799 7.861 3.799 2.179 0 4.373-.708 6.214-2.166 4.338-3.436 5.069-9.738 1.633-14.075z"/><path d="m222.04 68.575c-5.103-2.146-10.976.253-13.119 5.355l-7.347 17.483c-2.144 5.102.253 10.975 5.355 13.119 1.269.533 2.583.785 3.878.785 3.913 0 7.631-2.307 9.241-6.14l7.347-17.483c2.144-5.102-.254-10.975-5.355-13.119z"/><path d="m372.249 128.109-15.697 13.36c-4.214 3.587-4.722 9.91-1.136 14.124 1.982 2.329 4.799 3.525 7.635 3.525 2.296 0 4.604-.785 6.489-2.389l15.697-13.36c4.214-3.587 4.722-9.91 1.136-14.124-3.587-4.214-9.909-4.722-14.124-1.136z"/><path d="m302.422 102.102c-2.188-5.083-8.08-7.428-13.164-5.241-5.083 2.188-7.43 8.082-5.241 13.165l6.624 15.387c1.632 3.792 5.326 6.06 9.207 6.06 1.322 0 2.665-.263 3.957-.819 5.083-2.188 7.43-8.082 5.241-13.165z"/></g></g></svg>