<?xml version="1.0" standalone="no"?>
<!DOCTYPE svg PUBLIC "-//W3C//DTD SVG 20010904//EN"
 "http://www.w3.org/TR/2001/REC-SVG-20010904/DTD/svg10.dtd">
<svg version="1.0" xmlns="http://www.w3.org/2000/svg"
 width="500.000000pt" height="500.000000pt" viewBox="0 0 500.000000 500.000000"
 preserveAspectRatio="xMidYMid meet">

<g transform="translate(0.000000,500.000000) scale(0.100000,-0.100000)"
fill="#000000" stroke="none">
<path d="M2383 3963 c9 -2 25 -2 35 0 9 3 1 5 -18 5 -19 0 -27 -2 -17 -5z"/>
<path d="M2408 3923 c7 -3 16 -2 19 1 4 3 -2 6 -13 5 -11 0 -14 -3 -6 -6z"/>
<path d="M2266 3823 c-35 -3 -54 -10 -64 -24 -7 -10 -19 -19 -26 -19 -13 0
-46 -31 -46 -43 0 -14 25 -6 49 15 14 13 20 16 14 8 -20 -22 -16 -25 30 -25
23 0 48 -6 55 -12 7 -7 30 -13 50 -12 l37 1 -35 12 c-23 9 -35 19 -35 32 0 13
-8 20 -27 22 -18 2 -28 9 -28 20 0 15 2 15 10 2 5 -8 10 -10 10 -4 0 5 21 11
48 13 26 1 51 6 57 12 9 9 1 9 -99 2z"/>
<path d="M2453 3813 c12 -3 16 -10 12 -21 -3 -9 -3 -13 1 -9 4 4 18 -3 31 -15
24 -22 32 -17 11 7 -7 8 -19 21 -26 30 -7 8 -20 14 -30 14 -15 -1 -15 -2 1 -6z"/>
<path d="M2612 3804 c10 -10 20 -15 24 -12 3 4 -5 12 -18 18 -22 12 -22 12 -6
-6z"/>
<path d="M2766 3775 c-3 -8 -1 -15 4 -15 6 0 10 7 10 15 0 8 -2 15 -4 15 -2 0
-6 -7 -10 -15z"/>
<path d="M2610 3716 c0 -8 104 -75 110 -70 3 3 -2 10 -10 14 -8 5 -34 21 -57
35 -24 14 -43 24 -43 21z"/>
<path d="M2060 3670 l-25 -19 52 2 c34 1 55 7 58 16 4 10 -1 12 -20 7 -14 -4
-25 -2 -25 4 0 15 -12 12 -40 -10z"/>
<path d="M2521 3663 c-10 -26 -10 -27 4 -9 8 11 15 23 15 28 0 15 -7 8 -19
-19z"/>
<path d="M2242 3637 c-13 -15 -34 -67 -27 -67 2 0 12 15 21 33 9 17 22 35 28
39 8 6 8 8 0 8 -6 0 -16 -6 -22 -13z"/>
<path d="M2005 3630 c-3 -5 3 -10 14 -10 12 0 21 5 21 10 0 6 -6 10 -14 10 -8
0 -18 -4 -21 -10z"/>
<path d="M2860 3614 c0 -8 5 -12 10 -9 6 3 10 10 10 16 0 5 -4 9 -10 9 -5 0
-10 -7 -10 -16z"/>
<path d="M2990 3616 c0 -2 7 -9 15 -16 9 -7 15 -8 15 -2 0 5 -7 12 -15 16 -8
3 -15 4 -15 2z"/>
<path d="M1965 3586 c-16 -13 -34 -22 -39 -19 -5 4 -6 2 -3 -4 6 -9 -55 -68
-166 -161 -21 -17 -44 -29 -49 -25 -6 3 -8 2 -5 -4 4 -5 -1 -19 -11 -29 -9
-11 -18 -25 -20 -32 -3 -15 14 -16 23 -2 4 6 11 8 16 4 6 -4 3 -15 -9 -28 -34
-38 -37 -49 -11 -41 13 5 36 8 52 7 15 0 25 4 22 9 -4 5 -12 9 -20 9 -8 0 -13
12 -13 35 0 30 10 44 79 110 43 41 82 75 86 75 5 0 19 16 32 36 15 21 35 37
52 41 19 4 27 11 26 24 -2 24 -6 24 -42 -5z m-215 -209 c0 -2 -12 -14 -27 -28
-20 -18 -24 -19 -13 -4 18 24 40 42 40 32z"/>
<path d="M2360 3600 c8 -5 24 -10 35 -10 17 0 17 2 5 10 -8 5 -24 10 -35 10
-17 0 -17 -2 -5 -10z"/>
<path d="M2723 3540 c15 -22 67 -55 67 -42 -1 4 -19 20 -41 35 -35 24 -39 25
-26 7z"/>
<path d="M2077 3527 c-3 -8 12 -12 49 -12 56 0 53 9 -8 18 -23 3 -38 1 -41 -6z"/>
<path d="M1970 3511 c-12 -24 -13 -34 -1 -27 9 6 22 46 15 46 -2 0 -8 -9 -14
-19z"/>
<path d="M2980 3522 c0 -4 10 -13 23 -21 22 -14 22 -14 3 8 -20 22 -26 25 -26
13z"/>
<path d="M2296 3505 c-3 -8 -1 -15 3 -15 5 0 11 7 15 15 3 8 1 15 -3 15 -5 0
-11 -7 -15 -15z"/>
<path d="M1984 3469 c-3 -5 -10 -7 -15 -4 -5 4 -14 3 -21 -1 -8 -5 -6 -10 8
-15 17 -7 17 -8 -3 -8 -27 -1 -30 -16 -5 -30 16 -9 15 -10 -3 -10 -11 1 -38
-3 -59 -7 -35 -6 -39 -5 -33 10 4 10 3 15 -4 11 -5 -4 -17 -24 -26 -46 -8 -21
-20 -39 -27 -39 -6 -1 3 -7 19 -14 17 -7 35 -10 41 -5 6 5 26 4 44 -1 37 -11
53 -5 30 11 -8 5 -36 8 -63 7 -45 -3 -59 4 -37 17 6 4 8 10 5 15 -9 15 41 23
63 11 32 -17 71 -13 84 8 7 12 16 17 23 11 5 -4 26 -12 45 -17 19 -5 35 -14
35 -20 0 -6 4 -15 9 -20 5 -5 6 -3 2 5 -7 11 2 12 40 7 57 -8 42 10 -17 20
-22 4 -36 12 -36 21 0 8 6 14 13 14 6 0 14 9 17 19 3 14 -3 23 -24 31 -16 7
-29 15 -29 19 0 10 -70 9 -76 0z"/>
<path d="M2692 3468 c-18 -18 -15 -25 15 -31 25 -5 26 -4 9 8 -10 8 -15 18
-11 24 8 15 2 14 -13 -1z"/>
<path d="M2761 3411 c27 -21 69 -44 69 -38 0 7 -75 57 -84 57 -5 0 2 -8 15
-19z"/>
<path d="M1884 3353 c4 -4 19 -8 34 -10 23 -2 24 -1 7 7 -24 11 -51 13 -41 3z"/>
<path d="M2466 3351 c5 -5 23 -12 39 -16 30 -6 30 -6 -4 10 -38 17 -49 19 -35
6z"/>
<path d="M2587 3349 c7 -7 15 -10 18 -7 3 3 -2 9 -12 12 -14 6 -15 5 -6 -5z"/>
<path d="M2997 3333 c-4 -3 -7 -11 -7 -17 0 -6 5 -5 12 2 6 6 9 14 7 17 -3 3
-9 2 -12 -2z"/>
<path d="M3245 3330 c3 -5 11 -10 16 -10 6 0 7 5 4 10 -3 6 -11 10 -16 10 -6
0 -7 -4 -4 -10z"/>
<path d="M2680 3308 c0 -9 5 -20 10 -23 6 -3 10 -15 10 -26 0 -33 28 -68 50
-62 11 3 20 10 20 15 0 6 -7 8 -15 4 -11 -4 -24 11 -45 52 -16 31 -29 49 -30
40z"/>
<path d="M3059 3297 c15 -19 71 -61 71 -54 0 2 -19 19 -42 37 -24 19 -37 26
-29 17z"/>
<path d="M3197 3303 c-4 -3 -7 -11 -7 -17 0 -6 5 -5 12 2 6 6 9 14 7 17 -3 3
-9 2 -12 -2z"/>
<path d="M2025 3253 c-10 -21 -22 -46 -27 -55 -18 -36 0 -16 31 33 34 55 35
59 22 59 -5 0 -17 -17 -26 -37z"/>
<path d="M2080 3270 c8 -5 22 -10 30 -10 13 0 13 1 0 10 -8 5 -22 10 -30 10
-13 0 -13 -1 0 -10z"/>
<path d="M1785 3260 c-3 -5 -1 -10 4 -10 6 0 11 5 11 10 0 6 -2 10 -4 10 -3 0
-8 -4 -11 -10z"/>
<path d="M2150 3250 c0 -5 5 -10 11 -10 5 0 7 5 4 10 -3 6 -8 10 -11 10 -2 0
-4 -4 -4 -10z"/>
<path d="M1693 3223 c9 -2 25 -2 35 0 9 3 1 5 -18 5 -19 0 -27 -2 -17 -5z"/>
<path d="M1897 3223 c-4 -3 -7 -11 -7 -17 0 -6 5 -5 12 2 6 6 9 14 7 17 -3 3
-9 2 -12 -2z"/>
<path d="M3325 3210 c10 -11 20 -20 23 -20 3 0 -3 9 -13 20 -10 11 -20 20 -23
20 -3 0 3 -9 13 -20z"/>
<path d="M1579 3193 c-8 -10 -21 -27 -29 -37 -14 -18 -14 -19 6 -8 23 12 60
62 46 62 -5 0 -15 -8 -23 -17z"/>
<path d="M3060 3200 c0 -5 5 -10 11 -10 5 0 7 5 4 10 -3 6 -8 10 -11 10 -2 0
-4 -4 -4 -10z"/>
<path d="M2081 3133 c-13 -28 -13 -28 8 -9 22 20 27 36 13 36 -5 0 -14 -12
-21 -27z"/>
<path d="M3134 3151 c7 -11 46 -35 46 -28 0 3 -12 12 -26 22 -15 9 -23 12 -20
6z"/>
<path d="M1747 3133 c-4 -3 -7 -19 -7 -35 0 -17 -4 -27 -10 -23 -5 3 -7 0 -4
-8 3 -8 -5 -18 -18 -25 -23 -11 -23 -11 4 -11 15 -1 29 -5 32 -10 3 -4 28 -11
55 -14 27 -3 58 -10 68 -16 21 -11 106 -32 111 -27 3 4 -101 39 -153 51 l-30
8 30 8 c17 5 36 7 43 4 7 -3 10 0 7 6 -4 5 -19 8 -34 6 -31 -5 -71 17 -48 26
8 3 32 1 53 -4 22 -4 48 -8 59 -8 17 1 -27 15 -72 23 -7 1 -16 5 -19 9 -4 4
-20 7 -36 7 -25 0 -28 3 -23 20 6 20 4 25 -8 13z"/>
<path d="M2870 3135 c0 -2 15 -12 33 -20 l32 -16 -24 21 c-22 19 -41 26 -41
15z"/>
<path d="M1497 3120 c-24 -7 -67 -44 -67 -56 0 -2 15 -2 33 0 17 3 44 5 60 5
15 1 27 6 27 12 0 5 -4 8 -9 5 -5 -3 -11 1 -15 9 -3 8 -1 15 4 15 6 0 10 5 10
10 0 11 -4 11 -43 0z"/>
<path d="M1560 3120 c-13 -8 -12 -10 3 -10 9 0 17 5 17 10 0 12 -1 12 -20 0z"/>
<path d="M2570 3090 c8 -5 20 -10 25 -10 6 0 3 5 -5 10 -8 5 -19 10 -25 10 -5
0 -3 -5 5 -10z"/>
<path d="M1390 3065 c-11 -13 -10 -14 4 -9 9 3 16 10 16 15 0 13 -6 11 -20 -6z"/>
<path d="M2640 3066 c0 -2 7 -7 16 -10 8 -3 12 -2 9 4 -6 10 -25 14 -25 6z"/>
<path d="M1448 3043 c7 -3 16 -2 19 1 4 3 -2 6 -13 5 -11 0 -14 -3 -6 -6z"/>
<path d="M1373 3032 c-12 -2 -29 -14 -37 -27 -16 -24 -16 -25 16 -18 18 3 36
10 39 15 3 5 19 12 35 17 l29 8 -30 4 c-16 2 -40 3 -52 1z"/>
<path d="M1625 3000 c17 -7 15 -9 -12 -9 -47 -1 -41 -18 10 -26 23 -3 57 -11
75 -17 23 -7 37 -7 44 0 7 7 -3 14 -33 22 -65 16 -67 18 -29 19 26 1 31 4 20
11 -8 5 -33 9 -55 9 -31 0 -36 -2 -20 -9z"/>
<path d="M1491 2977 c-13 -21 -12 -21 5 -5 10 10 16 20 13 22 -3 3 -11 -5 -18
-17z"/>
<path d="M2920 2995 c0 -2 15 -12 33 -20 l32 -16 -25 20 c-24 20 -40 26 -40
16z"/>
<path d="M2258 2973 c7 -3 16 -2 19 1 4 3 -2 6 -13 5 -11 0 -14 -3 -6 -6z"/>
<path d="M1297 2960 c-35 -11 -59 -29 -51 -41 3 -5 -2 -9 -10 -9 -9 0 -16 -4
-16 -10 0 -16 30 -12 36 5 4 8 16 15 28 15 12 0 32 11 44 25 23 26 17 29 -31
15z"/>
<path d="M2624 2945 c11 -8 24 -15 30 -15 5 0 1 7 -10 15 -10 8 -23 14 -29 14
-5 0 -1 -6 9 -14z"/>
<path d="M1618 2943 c6 -2 18 -2 25 0 6 3 1 5 -13 5 -14 0 -19 -2 -12 -5z"/>
<path d="M1928 2938 c5 -5 16 -8 23 -6 8 3 3 7 -10 11 -17 4 -21 3 -13 -5z"/>
<path d="M2987 2929 c7 -7 15 -10 18 -7 3 3 -2 9 -12 12 -14 6 -15 5 -6 -5z"/>
<path d="M1376 2914 c-9 -23 -8 -24 17 -23 16 1 17 3 5 6 -10 2 -15 10 -11 19
3 8 3 14 0 14 -3 0 -8 -7 -11 -16z"/>
<path d="M1543 2918 c2 -14 -6 -14 -35 -3 -11 4 -18 3 -18 -4 0 -6 -12 -11
-27 -12 -27 -1 -26 -1 6 -11 35 -10 91 5 91 24 0 5 5 6 10 3 6 -3 10 -1 10 4
0 6 -9 11 -20 11 -11 0 -19 -6 -17 -12z"/>
<path d="M1835 2920 c-3 -5 3 -10 15 -10 12 0 30 -5 41 -11 11 -5 28 -8 37 -6
13 3 12 6 -8 14 -45 18 -79 23 -85 13z"/>
<path d="M1260 2888 c-31 -47 -33 -53 -11 -33 26 23 46 55 34 55 -5 0 -15 -10
-23 -22z"/>
<path d="M1702 2879 c-13 -16 -18 -30 -13 -34 6 -3 17 8 26 26 21 40 16 44
-13 8z"/>
<path d="M1806 2864 c-23 -48 -14 -54 13 -9 23 40 25 45 13 45 -5 0 -16 -16
-26 -36z"/>
<path d="M2182 2880 c-18 -29 -15 -38 4 -12 9 13 14 25 12 27 -2 2 -9 -5 -16
-15z"/>
<path d="M1880 2880 c0 -5 5 -10 11 -10 5 0 7 5 4 10 -3 6 -8 10 -11 10 -2 0
-4 -4 -4 -10z"/>
<path d="M1135 2854 c-13 -14 -23 -31 -22 -38 1 -6 -10 -12 -25 -14 -14 -2
-32 -11 -40 -20 -9 -11 -10 -14 0 -8 7 4 12 2 12 -4 0 -7 -8 -9 -19 -5 -14 4
-24 -2 -37 -25 -16 -27 -32 -34 -71 -33 -6 0 -9 -5 -7 -12 3 -7 -3 -15 -14
-17 -11 -3 -25 -19 -32 -35 -8 -17 -25 -35 -39 -41 l-26 -10 27 -1 c15 -1 34
6 43 15 8 9 22 13 30 10 8 -3 17 -1 20 4 3 5 -7 11 -22 13 -22 3 -20 4 11 6
29 1 37 4 32 16 -3 8 -1 15 5 15 17 0 51 38 44 49 -4 7 7 11 29 11 34 0 41 7
37 38 -1 6 7 12 18 12 11 0 28 11 37 25 9 14 24 25 33 25 20 0 61 27 61 41 0
21 -61 9 -85 -17z"/>
<path d="M1546 2839 c-15 -22 -26 -42 -24 -45 3 -2 18 14 33 36 15 22 26 42
24 44 -2 3 -17 -14 -33 -35z"/>
<path d="M1843 2868 c-17 -22 -85 -148 -80 -148 3 0 17 21 32 48 15 26 36 62
47 80 19 32 20 44 1 20z"/>
<path d="M1420 2859 c-58 -6 -58 -9 -1 -15 19 -2 38 -9 41 -15 7 -10 17 -1 33
27 7 12 7 12 -73 3z"/>
<path d="M1920 2861 c0 -5 9 -7 20 -4 11 3 20 7 20 9 0 2 -9 4 -20 4 -11 0
-20 -4 -20 -9z"/>
<path d="M3641 2867 c2 -1 13 -9 24 -17 19 -14 19 -14 6 3 -7 9 -18 17 -24 17
-6 0 -8 -1 -6 -3z"/>
<path d="M1987 2849 c7 -7 15 -10 18 -7 3 3 -2 9 -12 12 -14 6 -15 5 -6 -5z"/>
<path d="M2297 2849 c7 -7 15 -10 18 -7 3 3 -2 9 -12 12 -14 6 -15 5 -6 -5z"/>
<path d="M2985 2850 c3 -5 11 -10 16 -10 6 0 7 5 4 10 -3 6 -11 10 -16 10 -6
0 -7 -4 -4 -10z"/>
<path d="M1250 2825 c-7 -9 -8 -15 -2 -15 5 0 12 7 16 15 3 8 4 15 2 15 -2 0
-9 -7 -16 -15z"/>
<path d="M1840 2819 c0 -5 5 -7 10 -4 6 3 10 8 10 11 0 2 -4 4 -10 4 -5 0 -10
-5 -10 -11z"/>
<path d="M2145 2819 c-4 -6 -5 -12 -2 -15 2 -3 7 2 10 11 7 17 1 20 -8 4z"/>
<path d="M1660 2809 c0 -5 5 -7 10 -4 6 3 10 8 10 11 0 2 -4 4 -10 4 -5 0 -10
-5 -10 -11z"/>
<path d="M3810 2811 c0 -5 5 -13 10 -16 6 -3 10 -2 10 4 0 5 -4 13 -10 16 -5
3 -10 2 -10 -4z"/>
<path d="M1196 2793 c-6 -14 -5 -15 5 -6 7 7 10 15 7 18 -3 3 -9 -2 -12 -12z"/>
<path d="M1358 2803 c6 -2 18 -2 25 0 6 3 1 5 -13 5 -14 0 -19 -2 -12 -5z"/>
<path d="M1418 2803 c7 -3 16 -2 19 1 4 3 -2 6 -13 5 -11 0 -14 -3 -6 -6z"/>
<path d="M1550 2795 c-7 -9 -10 -18 -7 -21 3 -3 10 4 17 15 13 25 8 27 -10 6z"/>
<path d="M2665 2800 c3 -5 14 -10 23 -10 15 0 15 2 2 10 -20 13 -33 13 -25 0z"/>
<path d="M1325 2770 c27 -12 43 -12 25 0 -8 5 -22 9 -30 9 -10 0 -8 -3 5 -9z"/>
<path d="M1635 2762 c6 -5 24 -12 40 -16 34 -7 15 7 -25 19 -16 5 -22 4 -15
-3z"/>
<path d="M1132 2739 c-7 -12 -12 -22 -10 -24 10 -10 117 -15 122 -6 5 7 -7 11
-34 11 -38 0 -41 2 -34 23 6 21 6 21 -15 -3 -21 -24 -22 -24 -16 -2 8 28 4 28
-13 1z"/>
<path d="M1845 2734 c-9 -15 -12 -23 -6 -20 11 7 35 46 28 46 -3 0 -12 -12
-22 -26z"/>
<path d="M3295 2750 c3 -5 11 -10 16 -10 6 0 7 5 4 10 -3 6 -11 10 -16 10 -6
0 -7 -4 -4 -10z"/>
<path d="M1194 2739 c-2 -4 20 -9 49 -12 28 -3 61 -7 71 -9 10 -2 21 2 23 9 4
12 -135 24 -143 12z"/>
<path d="M1465 2720 c-19 -36 -33 -34 -15 2 11 22 10 22 -4 4 -12 -15 -16 -16
-16 -5 -1 8 -7 3 -15 -11 -18 -32 -18 -40 -1 -40 8 0 17 -4 20 -9 3 -4 -6 -6
-20 -3 -17 3 -30 -2 -39 -14 -21 -27 -18 -43 5 -37 11 3 20 1 20 -5 0 -6 -15
-12 -32 -14 -18 -2 -32 -8 -31 -14 1 -6 -10 -9 -29 -6 -21 3 -35 0 -42 -10 -6
-9 -20 -17 -30 -19 -35 -7 -28 -26 11 -34 34 -6 36 -8 16 -16 -12 -4 -32 -6
-44 -4 -12 3 -27 1 -33 -2 -6 -4 27 -15 74 -24 47 -9 87 -14 90 -11 3 2 0 7
-6 9 -6 2 -20 10 -30 18 -17 13 -16 14 21 12 34 -2 40 1 41 19 1 17 -3 20 -25
16 -14 -3 -23 -1 -19 3 4 4 20 8 35 10 15 1 35 6 45 10 9 3 33 2 54 -4 26 -7
42 -7 49 0 12 12 -10 29 -38 29 -11 0 -15 4 -11 12 5 8 0 9 -14 6 -13 -4 -20
-2 -16 3 6 11 76 0 85 -13 3 -5 11 3 17 17 11 24 10 27 -20 39 -60 25 -63 26
-33 20 17 -4 55 -8 85 -9 30 -1 62 -4 70 -6 9 -2 14 2 12 10 -2 9 3 11 15 6
10 -4 29 -9 43 -11 39 -7 -48 32 -92 40 -37 7 -53 26 -23 26 16 0 21 16 8 23
-5 3 -22 8 -40 12 -29 6 -34 3 -55 -29 -30 -46 -56 -50 -33 -5 9 17 14 33 11
36 -2 3 -12 -9 -21 -27z m88 -47 c-7 -2 -19 -2 -25 0 -7 3 -2 5 12 5 14 0 19
-2 13 -5z"/>
<path d="M1796 2733 c-6 -14 -5 -15 5 -6 7 7 10 15 7 18 -3 3 -9 -2 -12 -12z"/>
<path d="M3020 2726 c0 -2 11 -11 25 -20 14 -9 25 -13 25 -8 0 5 -11 14 -25
20 -14 6 -25 10 -25 8z"/>
<path d="M2597 2713 c-4 -3 -7 -11 -7 -17 0 -6 5 -5 12 2 6 6 9 14 7 17 -3 3
-9 2 -12 -2z"/>
<path d="M1155 2680 c18 -8 18 -9 -5 -9 -33 -2 -70 -12 -70 -20 0 -10 115 -6
119 5 2 5 11 14 20 21 13 10 7 12 -34 12 -37 0 -45 -3 -30 -9z"/>
<path d="M1926 2663 c-6 -14 -5 -15 5 -6 7 7 10 15 7 18 -3 3 -9 -2 -12 -12z"/>
<path d="M2710 2663 c29 -22 60 -36 60 -25 0 4 -12 13 -28 20 -49 24 -57 25
-32 5z"/>
<path d="M1288 2648 c-27 -41 -39 -68 -31 -68 4 0 18 21 31 45 24 48 24 60 0
23z"/>
<path d="M2290 2649 c0 -5 5 -7 10 -4 6 3 10 8 10 11 0 2 -4 4 -10 4 -5 0 -10
-5 -10 -11z"/>
<path d="M3727 2643 c-3 -10 -10 -33 -15 -50 -6 -18 -7 -33 -3 -33 10 0 28 37
35 73 7 29 -8 38 -17 10z"/>
<path d="M1666 2626 c6 -16 90 -46 128 -46 18 0 17 3 -9 20 -17 11 -23 20 -15
20 13 0 13 1 0 10 -20 13 -33 12 -24 -1 7 -12 3 -11 -64 7 -18 5 -21 3 -16
-10z"/>
<path d="M2050 2632 c8 -5 26 -13 40 -16 17 -5 20 -4 10 2 -8 5 -26 13 -40 16
-17 5 -20 4 -10 -2z"/>
<path d="M986 2613 c-6 -14 -5 -15 5 -6 7 7 10 15 7 18 -3 3 -9 -2 -12 -12z"/>
<path d="M1058 2619 c-20 -12 9 -19 71 -16 34 1 56 7 59 15 3 10 -10 13 -57
11 -33 -1 -66 -6 -73 -10z"/>
<path d="M2970 2619 c0 -5 5 -7 10 -4 6 3 10 8 10 11 0 2 -4 4 -10 4 -5 0 -10
-5 -10 -11z"/>
<path d="M785 2593 l-18 -28 27 24 c28 26 31 31 17 31 -5 0 -17 -12 -26 -27z"/>
<path d="M2410 2606 c15 -13 81 -39 86 -33 2 2 -20 13 -48 25 -30 13 -46 16
-38 8z"/>
<path d="M2137 2599 c7 -7 15 -10 18 -7 3 3 -2 9 -12 12 -14 6 -15 5 -6 -5z"/>
<path d="M1645 2579 c-9 -13 -15 -10 82 -42 83 -27 132 -36 104 -18 -11 7 -11
9 0 14 10 3 8 7 -6 13 -11 4 -22 10 -25 14 -5 6 -115 30 -138 30 -6 0 -14 -5
-17 -11z"/>
<path d="M3740 2580 c0 -5 5 -10 10 -10 6 0 10 5 10 10 0 6 -4 10 -10 10 -5 0
-10 -4 -10 -10z"/>
<path d="M3877 2576 c-4 -10 -5 -21 -2 -24 9 -9 17 6 13 25 -3 17 -4 17 -11
-1z"/>
<path d="M3970 2572 c0 -4 10 -13 23 -21 22 -14 22 -14 3 8 -20 22 -26 25 -26
13z"/>
<path d="M988 2562 c-64 -4 -61 -18 3 -21 29 -1 55 -4 59 -6 4 -3 13 1 19 9
14 17 -11 22 -81 18z"/>
<path d="M2856 2555 c10 -8 24 -14 29 -14 6 0 1 6 -9 14 -11 8 -24 15 -30 15
-5 0 -1 -7 10 -15z"/>
<path d="M3097 2559 c7 -7 15 -10 18 -7 3 3 -2 9 -12 12 -14 6 -15 5 -6 -5z"/>
<path d="M757 2553 c-3 -5 13 -9 34 -10 21 -2 39 2 39 7 0 12 -67 14 -73 3z"/>
<path d="M3766 2533 c-4 -16 -9 -36 -12 -45 -3 -10 -1 -18 5 -18 9 0 31 59 31
83 0 19 -19 4 -24 -20z"/>
<path d="M1127 2521 c-9 -16 -17 -33 -17 -38 0 -4 9 7 21 26 11 18 18 35 17
37 -2 2 -12 -10 -21 -25z"/>
<path d="M1969 2518 c-7 -12 -19 -33 -27 -45 -8 -13 -12 -23 -8 -23 9 0 58 81
53 87 -3 3 -11 -6 -18 -19z"/>
<path d="M3600 2536 c0 -2 14 -14 30 -26 17 -12 30 -19 30 -16 0 2 -13 14 -30
26 -16 12 -30 19 -30 16z"/>
<path d="M1690 2526 c0 -2 7 -7 16 -10 8 -3 12 -2 9 4 -6 10 -25 14 -25 6z"/>
<path d="M2780 2516 c28 -17 50 -21 35 -7 -6 5 -21 12 -35 15 l-25 7 25 -15z"/>
<path d="M945 2510 c-30 -8 -30 -8 8 -9 23 -1 36 3 32 9 -3 6 -7 9 -8 9 -1 -1
-15 -5 -32 -9z"/>
<path d="M1501 2474 c-22 -44 -24 -68 -4 -42 12 15 35 80 30 85 -2 1 -14 -18
-26 -43z"/>
<path d="M1597 2513 c-3 -5 -12 -26 -21 -48 -12 -31 -12 -35 -1 -20 8 11 20
28 27 38 15 21 52 13 44 -9 -4 -11 -2 -11 14 -2 30 19 37 0 13 -40 l-21 -37
22 -1 c11 0 39 -4 61 -8 50 -10 37 6 -20 25 -28 9 -35 14 -21 17 15 3 16 6 5
13 -9 6 0 7 26 3 43 -7 42 -7 68 -5 36 2 14 19 -67 49 -82 32 -121 39 -129 25z"/>
<path d="M994 2483 c-33 -45 -38 -61 -9 -26 14 18 34 37 43 43 15 8 15 9 1 10
-8 0 -24 -12 -35 -27z"/>
<path d="M1461 2463 c-28 -45 -33 -69 -10 -46 13 13 50 93 44 93 -3 0 -18 -21
-34 -47z"/>
<path d="M1840 2491 c-6 -12 -7 -21 -1 -21 10 0 24 30 17 37 -2 3 -9 -5 -16
-16z"/>
<path d="M3890 2507 c0 -2 15 -16 33 -33 l32 -29 -29 33 c-28 30 -36 37 -36
29z"/>
<path d="M3945 2500 c3 -5 8 -10 11 -10 2 0 4 5 4 10 0 6 -5 10 -11 10 -5 0
-7 -4 -4 -10z"/>
<path d="M2090 2490 c0 -6 7 -10 15 -10 8 0 15 2 15 4 0 2 -7 6 -15 10 -8 3
-15 1 -15 -4z"/>
<path d="M1613 2468 c-19 -25 -35 -61 -24 -54 6 4 18 20 26 37 16 30 15 38 -2
17z"/>
<path d="M2440 2475 c0 -7 109 -55 123 -55 7 0 -8 10 -33 21 -63 29 -90 39
-90 34z"/>
<path d="M1081 2446 c-9 -10 -6 -12 11 -9 13 2 41 -3 63 -11 34 -12 36 -15 15
-16 -23 -1 -23 -2 -5 -10 18 -8 18 -9 -5 -9 -14 0 -44 4 -67 8 -31 6 -43 5
-47 -5 -4 -9 5 -11 32 -8 29 3 31 2 12 -4 l-25 -8 25 -7 c13 -3 28 -3 33 2 4
4 25 3 46 -2 l38 -10 -24 -41 c-13 -23 -29 -49 -36 -59 -10 -14 -9 -19 3 -27
23 -15 47 -13 32 2 -14 14 -16 32 -3 24 4 -3 6 5 4 18 -3 13 2 30 13 41 23 22
54 80 54 100 0 8 -7 15 -15 15 -8 0 -15 4 -15 10 0 5 -7 6 -17 3 -11 -4 -14
-3 -9 5 4 7 3 12 -3 12 -5 0 -12 -6 -14 -12 -4 -10 -8 -10 -15 1 -6 9 -12 10
-16 2 -4 -7 -15 -7 -31 -1 -16 6 -27 5 -34 -4z m146 -42 c-3 -3 -12 -4 -19 -1
-8 3 -5 6 6 6 11 1 17 -2 13 -5z m-10 -20 c-3 -3 -12 -4 -19 -1 -8 3 -5 6 6 6
11 1 17 -2 13 -5z"/>
<path d="M740 2425 c-7 -9 -8 -15 -2 -15 5 0 12 7 16 15 3 8 4 15 2 15 -2 0
-9 -7 -16 -15z"/>
<path d="M1917 2433 c-4 -3 -7 -11 -7 -17 0 -6 5 -5 12 2 6 6 9 14 7 17 -3 3
-9 2 -12 -2z"/>
<path d="M3111 2436 c10 -9 69 -36 69 -32 0 6 -55 36 -66 36 -4 0 -5 -2 -3 -4z"/>
<path d="M3814 2405 c-6 -19 -7 -35 -3 -35 10 0 23 44 17 60 -1 5 -8 -6 -14
-25z"/>
<path d="M982 2410 c-7 -11 -9 -20 -4 -20 4 0 13 9 20 20 7 11 9 20 4 20 -4 0
-13 -9 -20 -20z"/>
<path d="M825 2410 c-3 -5 -1 -10 4 -10 6 0 11 5 11 10 0 6 -2 10 -4 10 -3 0
-8 -4 -11 -10z"/>
<path d="M908 2360 c-21 -33 -33 -60 -29 -60 5 0 18 15 29 33 11 19 27 46 37
60 9 15 13 27 9 27 -5 -1 -26 -28 -46 -60z"/>
<path d="M1594 2383 c-10 -16 -28 -45 -41 -65 -29 -47 -29 -55 2 -60 22 -5 30
2 58 49 26 44 36 53 52 48 11 -4 31 -9 45 -11 l25 -4 -25 11 c-68 30 -91 39
-87 32 2 -5 -7 -19 -20 -33 l-25 -25 21 43 c24 47 20 57 -5 15z"/>
<path d="M2840 2401 c0 -8 50 -34 56 -29 1 2 -11 11 -27 20 -16 9 -29 14 -29
9z"/>
<path d="M4040 2400 c0 -8 -3 -26 -7 -39 -4 -16 -2 -22 4 -18 15 10 22 43 12
58 -7 12 -9 11 -9 -1z"/>
<path d="M1302 2370 c-24 -31 -27 -40 -14 -40 5 0 16 16 25 35 20 43 18 44
-11 5z"/>
<path d="M1409 2375 c-7 -17 -19 -38 -27 -47 -13 -16 -13 -18 4 -24 11 -3 31
-10 46 -16 16 -6 37 -8 48 -5 11 3 18 1 14 -4 -3 -5 1 -9 8 -9 12 0 82 119 75
127 -2 2 -16 -14 -30 -34 -38 -55 -56 -64 -106 -51 -43 11 -46 14 -31 38 7 12
14 12 43 2 18 -7 39 -12 46 -12 22 0 1 18 -29 25 -16 4 -34 14 -39 23 -8 14
-11 12 -22 -13z"/>
<path d="M2378 2348 c-22 -34 -42 -74 -31 -63 14 15 55 85 50 85 -3 0 -11 -10
-19 -22z"/>
<path d="M3920 2355 c7 -8 17 -15 22 -15 6 0 5 7 -2 15 -7 8 -17 15 -22 15 -6
0 -5 -7 2 -15z"/>
<path d="M855 2331 c-8 -17 -12 -31 -7 -31 12 0 37 48 29 56 -3 3 -13 -8 -22
-25z"/>
<path d="M950 2349 c0 -4 18 -10 40 -14 22 -4 40 -11 40 -16 0 -6 -4 -8 -9 -4
-5 3 -12 1 -16 -5 -3 -5 -1 -10 5 -10 6 0 9 -4 5 -9 -3 -5 5 -13 17 -17 17 -5
27 0 44 22 13 15 21 30 19 33 -9 8 -145 28 -145 20z"/>
<path d="M2060 2356 c0 -2 7 -7 16 -10 8 -3 12 -2 9 4 -6 10 -25 14 -25 6z"/>
<path d="M2120 2330 c8 -5 22 -9 30 -9 10 0 8 3 -5 9 -27 12 -43 12 -25 0z"/>
<path d="M1730 2326 c0 -2 9 -6 20 -9 11 -3 20 -1 20 4 0 5 -9 9 -20 9 -11 0
-20 -2 -20 -4z"/>
<path d="M2518 2309 c18 -12 35 -19 38 -16 3 3 -8 13 -25 21 -43 23 -52 19
-13 -5z"/>
<path d="M1280 2312 c-20 -7 -49 -44 -50 -62 0 -12 -2 -12 -8 -2 -6 9 -12 5
-20 -13 -11 -23 -16 -25 -47 -19 -45 8 -47 -12 -2 -25 l32 -10 -39 2 c-30 2
-42 -3 -53 -20 -15 -22 -14 -23 11 -23 15 0 25 -4 22 -9 -7 -11 22 -23 35 -16
18 12 79 -7 79 -24 0 -14 2 -14 10 -1 15 23 12 27 -27 39 l-38 11 43 -5 c54
-7 55 11 1 25 -23 6 -39 14 -36 16 3 3 22 1 44 -5 47 -13 53 -14 53 -1 0 5
-20 15 -44 21 -29 7 -43 15 -40 24 4 10 12 10 42 0 20 -7 57 -15 82 -19 42 -6
44 -6 25 8 -15 12 -16 16 -5 16 8 0 2 8 -13 16 -16 9 -27 17 -25 19 5 5 103
-22 166 -45 30 -12 59 -17 64 -12 4 4 -18 16 -50 26 -114 36 -191 68 -194 80
-2 7 -10 11 -18 8z m-101 -168 c10 -9 -35 -3 -49 6 -11 8 -7 9 15 4 17 -4 32
-8 34 -10z"/>
<path d="M1795 2310 c11 -5 27 -9 35 -9 9 0 8 4 -5 9 -11 5 -27 9 -35 9 -9 0
-8 -4 5 -9z"/>
<path d="M2198 2303 c7 -3 16 -2 19 1 4 3 -2 6 -13 5 -11 0 -14 -3 -6 -6z"/>
<path d="M2780 2299 c0 -5 4 -7 10 -4 5 3 20 1 32 -5 22 -11 22 -10 4 4 -23
18 -46 21 -46 5z"/>
<path d="M3140 2306 c0 -2 7 -7 16 -10 8 -3 12 -2 9 4 -6 10 -25 14 -25 6z"/>
<path d="M3890 2302 c0 -7 5 -12 11 -12 6 0 9 -7 5 -15 -3 -8 -1 -15 4 -15 19
0 19 18 0 35 -12 10 -20 13 -20 7z"/>
<path d="M935 2286 c22 -7 44 -10 49 -8 14 8 -24 21 -59 21 -28 -1 -27 -1 10
-13z"/>
<path d="M4075 2280 c-4 -12 -5 -24 -2 -27 3 -2 8 5 12 17 4 12 5 24 2 27 -3
2 -8 -5 -12 -17z"/>
<path d="M822 2275 c4 -4 24 -11 45 -15 21 -4 50 -11 66 -15 16 -4 27 -3 27 3
0 11 -23 17 -100 28 -25 3 -42 2 -38 -1z"/>
<path d="M397 2253 c-4 -3 -7 -11 -7 -17 0 -6 5 -5 12 2 6 6 9 14 7 17 -3 3
-9 2 -12 -2z"/>
<path d="M2896 2246 c4 -10 64 -40 64 -31 0 2 -15 12 -34 23 -20 12 -33 15
-30 8z"/>
<path d="M3895 2239 c-4 -6 -5 -12 -2 -15 2 -3 7 2 10 11 7 17 1 20 -8 4z"/>
<path d="M500 2225 c-7 -9 -8 -15 -2 -15 5 0 12 7 16 15 3 8 4 15 2 15 -2 0
-9 -7 -16 -15z"/>
<path d="M885 2225 l30 -14 -29 -1 c-35 0 -30 -9 9 -16 19 -3 31 1 40 13 17
23 3 33 -45 32 l-35 -1 30 -13z"/>
<path d="M717 2223 c-4 -3 -7 -11 -7 -17 0 -6 5 -5 12 2 6 6 9 14 7 17 -3 3
-9 2 -12 -2z"/>
<path d="M1012 2194 c-24 -37 -26 -44 -14 -44 9 0 45 70 40 76 -2 1 -13 -13
-26 -32z"/>
<path d="M1672 2218 c-7 -7 -12 -16 -12 -22 0 -5 6 -2 13 8 12 16 15 16 51 1
46 -20 60 -13 17 9 -36 19 -53 20 -69 4z"/>
<path d="M2036 2214 c-5 -14 -4 -15 9 -4 17 14 19 20 6 20 -5 0 -12 -7 -15
-16z"/>
<path d="M3470 2210 c14 -11 29 -20 34 -20 5 0 -3 9 -17 20 -14 11 -29 20 -34
20 -4 0 3 -9 17 -20z"/>
<path d="M588 2213 c6 -3 10 -9 6 -14 -8 -14 16 -11 31 5 11 11 8 13 -18 13
-18 1 -26 -1 -19 -4z"/>
<path d="M4006 2205 c10 -8 15 -15 10 -15 -13 0 34 -49 59 -62 19 -10 19 -10
-1 13 -12 13 -32 36 -44 52 -13 15 -28 27 -34 27 -5 0 -1 -7 10 -15z"/>
<path d="M1602 2163 c-13 -25 -18 -42 -13 -38 12 7 45 74 40 79 -2 2 -14 -16
-27 -41z"/>
<path d="M2660 2200 c0 -11 42 -31 49 -24 2 2 -2 10 -9 19 -14 17 -40 20 -40
5z"/>
<path d="M371 2184 c0 -11 3 -14 6 -6 3 7 2 16 -1 19 -3 4 -6 -2 -5 -13z"/>
<path d="M815 2190 c3 -5 13 -10 21 -10 8 0 14 5 14 10 0 6 -9 10 -21 10 -11
0 -17 -4 -14 -10z"/>
<path d="M4230 2196 c0 -2 8 -10 18 -17 15 -13 16 -12 3 4 -13 16 -21 21 -21
13z"/>
<path d="M1780 2179 c0 -5 8 -9 18 -9 9 0 38 -8 65 -17 38 -14 49 -15 60 -4
10 10 8 12 -8 10 -11 -2 -36 2 -55 8 -58 18 -80 22 -80 12z"/>
<path d="M1410 2171 c0 -4 15 -11 33 -14 17 -3 41 -8 52 -11 11 -4 2 3 -20 14
-43 21 -65 25 -65 11z"/>
<path d="M2185 2161 c60 -27 98 -36 55 -13 -19 11 -48 22 -65 25 -25 5 -24 4
10 -12z"/>
<path d="M4230 2163 c0 -5 18 -21 40 -36 44 -28 66 -18 31 14 -12 11 -21 15
-21 9 0 -6 -11 -3 -25 6 -14 9 -25 12 -25 7z"/>
<path d="M357 2153 c-14 -13 -7 -130 7 -142 12 -10 13 -9 9 8 -3 12 7 42 26
74 17 30 31 58 31 63 0 5 -15 -16 -33 -46 -33 -58 -43 -53 -35 16 4 37 4 37
-5 27z"/>
<path d="M1550 2149 c0 -5 5 -7 10 -4 6 3 10 8 10 11 0 2 -4 4 -10 4 -5 0 -10
-5 -10 -11z"/>
<path d="M2533 2153 c10 -9 137 -62 137 -56 0 5 -125 63 -136 63 -4 0 -4 -3
-1 -7z"/>
<path d="M1965 2139 c-4 -6 -14 -8 -22 -5 -8 3 -11 1 -8 -4 9 -15 32 -12 39 5
6 17 0 20 -9 4z"/>
<path d="M2874 2136 c11 -9 24 -16 30 -16 12 0 7 5 -24 19 -24 11 -24 11 -6
-3z"/>
<path d="M740 2130 c14 -4 34 -8 45 -8 16 0 15 2 -5 8 -14 4 -34 8 -45 8 -16
0 -15 -2 5 -8z"/>
<path d="M979 2129 c-12 -7 -12 -9 -1 -9 8 0 30 -7 49 -16 24 -12 37 -14 45
-6 12 12 1 35 -15 29 -7 -2 -24 -1 -38 3 -15 5 -33 4 -40 -1z"/>
<path d="M1395 2130 c3 -5 14 -10 23 -10 9 0 29 -6 43 -14 15 -7 50 -19 78
-27 45 -11 50 -15 45 -33 -11 -35 -17 -36 -91 -9 -59 21 -76 23 -88 13 -19
-16 -19 -27 -1 -27 8 0 14 3 13 6 -2 6 7 11 18 11 3 0 1 -9 -5 -20 -6 -11 -15
-18 -20 -15 -5 3 -11 1 -15 -5 -4 -6 -11 -8 -16 -5 -5 3 -6 0 -4 -7 3 -8 -2
-22 -11 -33 -8 -11 -13 -14 -9 -7 3 6 1 12 -4 12 -6 0 -11 -6 -11 -12 0 -7
-12 -26 -26 -43 -20 -24 -23 -25 -14 -7 18 37 5 37 -17 0 -31 -53 -33 -66 -15
-73 47 -19 58 -15 81 25 12 22 26 42 31 45 16 10 90 -17 90 -32 0 -8 4 -11 10
-8 5 3 31 -1 56 -10 50 -17 74 -14 74 7 0 11 -2 11 -9 0 -6 -10 -29 -5 -105
22 -53 20 -101 38 -106 41 -5 3 6 27 23 55 31 47 33 49 74 45 23 -2 51 -8 62
-14 37 -20 51 -12 76 45 30 67 29 64 8 64 -14 0 -15 -2 -5 -9 11 -7 11 -9 -2
-14 -10 -4 -13 -13 -10 -24 4 -11 3 -14 -3 -7 -14 19 -73 45 -144 65 -80 22
-82 22 -74 9z m215 -90 c0 -5 -4 -10 -10 -10 -5 0 -10 5 -10 10 0 6 5 10 10
10 6 0 10 -4 10 -10z m-208 -62 c-7 -7 -12 -8 -12 -2 0 6 3 14 7 17 3 4 9 5
12 2 2 -3 -1 -11 -7 -17z"/>
<path d="M853 2083 c-47 -75 -73 -120 -73 -126 0 -3 8 -8 18 -10 9 -3 -7 -5
-35 -6 -40 -1 -53 3 -53 13 0 8 5 16 11 18 6 2 20 26 30 53 21 55 16 64 -36
65 -16 0 -40 3 -52 6 -14 4 -23 2 -23 -5 0 -6 19 -11 45 -11 50 0 53 -4 28
-39 -15 -23 -17 -23 -30 -5 -13 18 -14 18 -33 -1 -13 -13 -16 -25 -11 -34 7
-11 10 -9 16 8 3 11 11 21 16 21 20 0 19 -28 -1 -64 -36 -60 -15 -40 25 25 51
82 57 67 7 -18 -22 -37 -38 -70 -35 -73 2 -3 9 3 14 13 10 17 69 25 69 9 0
-11 46 -32 70 -32 10 0 22 9 25 20 5 15 15 20 40 20 19 0 37 5 41 11 5 8 10 6
16 -6 8 -13 3 -27 -19 -58 -42 -59 -106 -177 -100 -183 6 -6 12 -8 75 -19 49
-9 52 -21 20 -74 -13 -20 -23 -40 -23 -46 0 -5 -8 -9 -17 -9 -20 2 -17 -25 5
-38 13 -7 19 -5 23 9 16 47 68 146 72 135 2 -7 -12 -44 -32 -81 -20 -38 -36
-72 -36 -75 0 -3 9 -6 21 -6 11 0 18 4 14 10 -6 10 48 125 65 135 15 9 12 -12
-5 -45 -9 -17 -13 -30 -11 -30 14 0 30 51 32 103 2 60 -2 64 -54 58 -7 -1 -15
5 -18 14 -4 9 -13 13 -23 10 -27 -8 -71 8 -62 24 7 10 13 11 29 2 35 -19 42
-13 26 24 -8 19 -11 35 -6 35 4 0 13 -14 19 -30 10 -26 16 -30 45 -29 38 1
124 -8 151 -17 13 -4 17 -12 13 -26 -4 -16 -2 -18 7 -9 13 13 31 15 23 2 -9
-15 27 -38 69 -44 l40 -6 -30 15 -30 15 39 -5 c30 -4 43 -1 52 12 16 20 18 46
4 37 -6 -4 -8 -9 -6 -13 2 -4 -2 -13 -10 -20 -17 -15 -17 -12 -4 22 12 33 5
34 -12 1 l-13 -24 -54 24 c-29 14 -58 25 -64 25 -7 0 -31 9 -55 20 -47 21 -44
20 -91 31 -27 6 -37 4 -47 -9 -12 -16 -13 -16 -20 2 -4 10 -3 21 2 25 13 9 57
80 72 116 l13 30 -30 -35 c-17 -19 -33 -43 -36 -52 -4 -10 -10 -18 -15 -18 -4
0 5 24 21 53 34 62 35 67 8 67 -11 0 -17 4 -14 10 3 6 -1 7 -9 4 -9 -3 -16 -1
-16 5 0 6 -18 11 -41 11 -24 0 -38 -4 -34 -10 4 -6 -5 -10 -19 -10 -31 0 -32
9 -7 41 19 26 54 89 48 89 -2 0 -17 -21 -34 -47z m-93 -17 c0 -3 -4 -8 -10
-11 -5 -3 -10 -1 -10 4 0 6 5 11 10 11 6 0 10 -2 10 -4z m160 -123 c3 -3 -6
-3 -20 1 -14 4 -42 10 -62 13 -36 5 -45 13 -32 26 6 6 104 -29 114 -40z m-24
-222 c-8 -12 22 -23 37 -15 9 5 9 4 1 -5 -9 -10 -20 -10 -52 0 -45 13 -48 23
-7 27 14 1 24 -2 21 -7z m88 -39 c3 -5 -1 -9 -9 -9 -8 0 -12 4 -9 9 3 4 7 8 9
8 2 0 6 -4 9 -8z"/>
<path d="M575 2110 c-3 -5 -1 -10 4 -10 6 0 11 5 11 10 0 6 -2 10 -4 10 -3 0
-8 -4 -11 -10z"/>
<path d="M2920 2110 c0 -5 19 -18 43 -29 25 -13 34 -15 22 -6 -11 9 -19 20
-18 25 1 4 -9 10 -22 13 -14 2 -25 1 -25 -3z"/>
<path d="M4476 2107 c3 -10 9 -15 12 -12 3 3 0 11 -7 18 -10 9 -11 8 -5 -6z"/>
<path d="M458 2103 c7 -3 16 -2 19 1 4 3 -2 6 -13 5 -11 0 -14 -3 -6 -6z"/>
<path d="M1370 2100 c0 -6 7 -10 15 -10 8 0 15 2 15 4 0 2 -7 6 -15 10 -8 3
-15 1 -15 -4z"/>
<path d="M1720 2085 c-7 -13 -16 -22 -20 -20 -4 3 -7 -3 -6 -13 0 -9 -5 -16
-11 -14 -13 2 -17 -10 -14 -37 2 -7 -2 -10 -7 -7 -5 3 -15 0 -21 -8 -9 -11 -8
-15 5 -20 20 -8 16 -12 45 43 13 24 30 55 37 68 8 14 12 26 10 29 -3 2 -11 -7
-18 -21z"/>
<path d="M1417 2089 c7 -7 15 -10 18 -7 3 3 -2 9 -12 12 -14 6 -15 5 -6 -5z"/>
<path d="M939 2073 c-13 -16 -12 -17 3 -4 15 11 28 11 87 -4 39 -9 76 -15 83
-12 13 4 -116 37 -145 37 -8 0 -21 -8 -28 -17z"/>
<path d="M1342 2068 c-17 -23 -44 -80 -38 -85 2 -3 14 14 26 36 19 39 49 49
35 12 -4 -10 2 -7 16 8 18 19 19 25 8 32 -20 12 -35 11 -47 -3z"/>
<path d="M4040 2069 c0 -5 5 -7 10 -4 6 3 10 8 10 11 0 2 -4 4 -10 4 -5 0 -10
-5 -10 -11z"/>
<path d="M4311 2068 c8 -7 20 -20 27 -29 9 -12 9 -16 -3 -16 -8 0 -12 4 -10 8
3 3 -2 12 -10 19 -8 7 -15 9 -15 5 0 -4 -7 -2 -16 5 -13 12 -14 10 -3 -12 15
-33 66 -71 82 -62 8 5 8 3 -1 -9 -8 -9 -11 -21 -7 -27 3 -5 1 -10 -4 -10 -6 0
-11 -5 -11 -11 0 -6 8 -8 19 -4 11 3 22 1 26 -4 4 -7 -1 -8 -12 -4 -13 4 -9
-4 12 -28 18 -20 21 -26 7 -14 l-23 19 3 -36 c1 -20 7 -34 13 -32 5 2 26 -12
45 -32 26 -28 29 -34 12 -25 -13 7 -26 19 -29 27 -10 27 -18 14 -18 -30 0 -37
4 -46 28 -59 34 -20 34 -14 2 20 -13 15 -22 29 -19 32 3 3 10 -2 15 -11 18
-33 48 -42 71 -21 20 17 19 18 -34 66 -29 27 -41 42 -25 33 26 -16 27 -16 29
6 2 31 3 39 15 68 7 16 7 34 1 49 -5 14 -7 30 -4 37 3 8 0 16 -6 20 -6 4 -8 3
-5 -3 4 -6 0 -16 -8 -23 -7 -6 -11 -18 -8 -26 3 -8 0 -14 -6 -14 -6 0 -8 -7
-5 -15 4 -9 0 -15 -9 -15 -8 0 -18 -6 -21 -12 -3 -7 -3 -3 -1 8 4 14 0 24 -10
28 -8 3 -15 13 -15 23 0 15 4 14 20 -7 l19 -25 11 29 c9 24 8 31 -5 38 -17 10
-21 48 -4 48 5 0 7 5 4 10 -3 6 -11 10 -17 10 -6 0 -9 -3 -5 -6 3 -4 -1 -13
-9 -22 -14 -13 -19 -11 -48 17 -17 17 -36 31 -41 31 -5 0 -2 -6 6 -12z m109
-95 c0 -13 -3 -13 -15 -3 -8 7 -12 16 -9 21 8 13 24 1 24 -18z"/>
<path d="M1246 2048 c-9 -12 -16 -28 -16 -35 0 -6 -5 -15 -11 -18 -5 -4 -3 9
5 29 8 20 12 36 8 36 -6 0 -37 -47 -100 -151 l-23 -38 28 -7 c15 -3 41 -10 56
-14 17 -6 25 -6 22 0 -4 6 0 10 7 10 9 0 9 3 -2 10 -20 13 -33 13 -25 0 3 -5
1 -10 -4 -10 -6 0 -11 7 -11 15 0 8 -4 15 -10 15 -5 0 -10 5 -10 11 0 12 58 2
78 -14 9 -7 16 -6 25 4 7 7 8 11 3 7 -5 -4 -18 -1 -30 7 -11 8 -28 15 -38 15
-26 0 -30 16 -8 41 11 13 19 18 20 12 0 -27 18 -11 40 37 25 53 23 76 -4 38z"/>
<path d="M1485 2060 c3 -5 10 -10 16 -10 5 0 9 5 9 10 0 6 -7 10 -16 10 -8 0
-12 -4 -9 -10z"/>
<path d="M1750 2066 c0 -3 9 -10 20 -16 11 -6 20 -8 20 -6 0 3 -9 10 -20 16
-11 6 -20 8 -20 6z"/>
<path d="M481 2039 c-7 -12 -10 -23 -8 -26 3 -3 11 5 17 17 15 28 8 35 -9 9z"/>
<path d="M2942 2054 c4 -3 13 -7 22 -8 8 -1 24 -10 35 -20 11 -10 25 -16 32
-14 15 5 -55 48 -78 48 -9 0 -14 -3 -11 -6z"/>
<path d="M3240 2052 c0 -5 11 -14 25 -20 14 -6 25 -10 25 -8 0 2 -11 11 -25
20 -14 9 -25 13 -25 8z"/>
<path d="M4170 2051 c0 -5 5 -13 10 -16 6 -3 10 -2 10 4 0 5 -4 13 -10 16 -5
3 -10 2 -10 -4z"/>
<path d="M4570 2053 c0 -13 29 -38 35 -31 3 3 -4 13 -15 23 -11 10 -20 13 -20
8z"/>
<path d="M910 2044 c0 -11 59 -27 150 -39 31 -4 30 -3 -10 10 -25 8 -52 18
-60 21 -20 8 -80 14 -80 8z"/>
<path d="M1166 2033 c-6 -14 -5 -15 5 -6 7 7 10 15 7 18 -3 3 -9 -2 -12 -12z"/>
<path d="M1828 2028 c5 -5 16 -8 23 -6 8 3 3 7 -10 11 -17 4 -21 3 -13 -5z"/>
<path d="M2470 2030 c0 -5 5 -10 10 -10 6 0 10 5 10 10 0 6 -4 10 -10 10 -5 0
-10 -4 -10 -10z"/>
<path d="M2210 2016 c0 -2 7 -7 16 -10 8 -3 12 -2 9 4 -6 10 -25 14 -25 6z"/>
<path d="M555 2000 c11 -5 34 -9 50 -9 26 0 27 2 10 9 -11 5 -33 9 -50 9 -26
0 -27 -2 -10 -9z"/>
<path d="M1137 1988 c-26 -43 -57 -99 -57 -104 0 -15 22 13 49 63 30 55 37 87
8 41z"/>
<path d="M2046 1993 c-6 -14 -5 -15 5 -6 7 7 10 15 7 18 -3 3 -9 -2 -12 -12z"/>
<path d="M2568 1998 c12 -6 22 -15 22 -20 0 -4 6 -8 13 -8 8 0 35 -11 60 -24
49 -24 57 -24 57 6 0 13 -8 19 -27 20 -16 1 -37 2 -48 3 -11 1 -34 9 -52 18
-18 9 -36 17 -40 16 -4 0 2 -5 15 -11z"/>
<path d="M2885 1980 c3 -6 12 -10 20 -10 8 0 18 -6 22 -14 9 -15 73 -50 79
-43 3 3 -17 18 -43 34 -56 34 -87 47 -78 33z"/>
<path d="M615 1954 c-3 -10 -13 -32 -21 -48 -15 -30 -14 -45 3 -24 14 18 34
80 28 86 -2 3 -7 -4 -10 -14z"/>
<path d="M1041 1931 c-23 -31 -26 -41 -13 -41 5 0 16 16 25 35 20 43 15 45
-12 6z"/>
<path d="M4271 1929 c-7 -20 -15 -28 -22 -23 -9 5 -10 2 -6 -10 4 -10 7 -20 7
-23 0 -17 29 29 35 55 9 41 0 41 -14 1z"/>
<path d="M4616 1947 c3 -10 9 -15 12 -12 3 3 0 11 -7 18 -10 9 -11 8 -5 -6z"/>
<path d="M1465 1935 c17 -8 37 -14 45 -14 8 0 -1 7 -20 14 -46 18 -64 17 -25
0z"/>
<path d="M2410 1929 c0 -5 5 -7 10 -4 6 3 10 8 10 11 0 2 -4 4 -10 4 -5 0 -10
-5 -10 -11z"/>
<path d="M420 1919 c0 -5 11 -9 25 -9 14 0 25 2 25 4 0 2 -11 6 -25 8 -14 3
-25 1 -25 -3z"/>
<path d="M1752 1900 c-7 -11 -8 -20 -3 -20 9 0 24 30 18 36 -1 2 -8 -6 -15
-16z"/>
<path d="M3881 1917 c2 -1 15 -11 29 -22 l25 -20 -19 23 c-11 12 -24 22 -29
22 -6 0 -8 -1 -6 -3z"/>
<path d="M4140 1912 c0 -4 9 -13 20 -19 16 -11 18 -10 14 1 -6 15 -34 30 -34
18z"/>
<path d="M2120 1899 c0 -5 5 -7 10 -4 6 3 10 8 10 11 0 2 -4 4 -10 4 -5 0 -10
-5 -10 -11z"/>
<path d="M3274 1901 c3 -5 16 -11 28 -14 22 -6 22 -5 4 8 -22 17 -40 20 -32 6z"/>
<path d="M4530 1873 c35 -42 57 -55 47 -29 -4 9 -1 13 6 10 15 -5 22 42 8 51
-5 3 -7 -3 -4 -13 3 -14 -1 -18 -16 -17 -11 1 -24 5 -28 10 -5 4 -2 5 5 1 6
-4 12 -2 12 4 0 7 -7 9 -16 6 -9 -4 -24 -1 -33 6 -9 7 0 -6 19 -29z"/>
<path d="M420 1881 c0 -5 5 -13 10 -16 6 -3 10 -2 10 4 0 5 -4 13 -10 16 -5 3
-10 2 -10 -4z"/>
<path d="M660 1880 c0 -6 8 -10 18 -11 15 0 14 -1 -3 -8 -17 -7 -16 -9 9 -15
16 -4 33 -3 38 2 10 10 56 4 64 -9 3 -5 -19 -54 -48 -108 l-53 -100 24 -23 23
-23 -11 22 c-13 25 5 103 24 103 5 0 23 34 39 76 24 63 27 77 15 85 -22 14
-33 10 -19 -6 11 -13 10 -14 -4 -9 -9 3 -16 13 -16 21 0 8 -5 11 -10 8 -6 -4
-8 -10 -5 -15 3 -4 -15 -2 -40 6 -26 7 -45 9 -45 4z"/>
<path d="M1860 1880 c0 -6 7 -10 15 -10 8 0 15 2 15 4 0 2 -7 6 -15 10 -8 3
-15 1 -15 -4z"/>
<path d="M1001 1867 c-16 -16 -14 -27 4 -27 9 0 30 -7 47 -16 18 -9 51 -16 74
-16 28 1 44 -4 48 -13 3 -8 16 -14 28 -13 13 1 39 -2 58 -5 32 -7 31 -5 -13
15 -28 13 -45 27 -40 32 5 5 0 6 -11 2 -11 -4 -43 3 -75 15 -90 34 -108 38
-120 26z"/>
<path d="M4210 1855 c9 -11 9 -22 2 -44 -8 -23 -7 -32 6 -46 10 -10 11 -15 5
-11 -7 4 -13 2 -13 -3 0 -6 7 -11 15 -11 8 0 31 -15 51 -32 48 -42 31 -7 -20
41 -20 19 -36 42 -36 50 1 14 2 14 13 1 7 -8 26 -26 42 -40 l29 -25 -25 35
c-13 19 -24 40 -24 45 -1 6 -6 9 -13 8 -7 -2 -12 6 -12 16 0 10 -7 22 -16 25
-14 5 -15 4 -4 -9z"/>
<path d="M1940 1850 c8 -5 20 -10 25 -10 6 0 3 5 -5 10 -8 5 -19 10 -25 10 -5
0 -3 -5 5 -10z"/>
<path d="M2260 1851 c8 -5 26 -12 40 -15 l25 -7 -25 15 c-14 9 -32 15 -40 15
-13 0 -13 -1 0 -8z"/>
<path d="M825 1820 c-9 -16 -13 -30 -11 -30 3 0 12 14 21 30 9 17 13 30 11 30
-3 0 -12 -13 -21 -30z"/>
<path d="M2622 1840 c2 -8 24 -25 49 -37 50 -25 59 -27 59 -12 0 9 -48 34 -81
41 -8 2 -18 8 -22 13 -5 6 -7 4 -5 -5z"/>
<path d="M552 1828 c-5 -7 -12 -23 -16 -34 -5 -18 -1 -23 21 -30 15 -4 47 -8
70 -9 34 -2 43 2 51 21 9 18 7 23 -10 27 -22 6 -52 -15 -40 -28 4 -5 -4 -5
-18 -2 -14 4 -36 7 -50 7 -14 0 -20 3 -14 8 11 7 29 52 21 52 -3 0 -9 -6 -15
-12z"/>
<path d="M740 1820 c-6 -11 -8 -20 -6 -20 3 0 10 9 16 20 6 11 8 20 6 20 -3 0
-10 -9 -16 -20z"/>
<path d="M1705 1820 c-10 -11 -16 -22 -13 -25 3 -3 13 6 22 20 20 30 16 32 -9
5z"/>
<path d="M2897 1829 c7 -7 15 -10 18 -7 3 3 -2 9 -12 12 -14 6 -15 5 -6 -5z"/>
<path d="M1446 1822 c-3 -5 15 -15 40 -21 52 -13 70 -9 27 7 -15 5 -35 13 -44
17 -10 3 -20 2 -23 -3z"/>
<path d="M1653 1817 c-3 -6 -1 -7 5 -3 5 3 12 1 14 -6 3 -8 6 -7 10 3 7 17
-19 22 -29 6z"/>
<path d="M2955 1797 c17 -15 36 -26 44 -27 17 0 17 0 -34 29 l-40 23 30 -25z"/>
<path d="M1753 1780 c-13 -16 -23 -36 -24 -47 0 -11 -3 -13 -6 -5 -4 10 -8 10
-20 1 -12 -10 -16 -10 -24 2 -7 11 -9 11 -9 -3 0 -10 -4 -18 -9 -18 -5 0 -11
-6 -14 -13 -3 -9 10 -19 38 -29 l43 -16 35 54 c20 29 32 56 27 59 -5 3 -11 -3
-15 -14 -3 -11 -12 -25 -20 -31 -13 -11 -13 -8 -3 21 6 19 15 40 21 47 5 7 8
14 6 16 -2 2 -14 -9 -26 -24z"/>
<path d="M4360 1803 c5 -2 8 -9 4 -14 -3 -5 0 -9 6 -9 15 0 7 23 -8 26 -7 1
-8 0 -2 -3z"/>
<path d="M1391 1734 c-31 -48 -49 -49 -25 -2 24 47 9 44 -19 -3 -29 -47 -27
-59 7 -59 16 0 27 9 35 28 22 50 39 66 55 53 8 -7 22 -11 32 -9 10 2 4 9 -21
20 l-37 16 -27 -44z"/>
<path d="M965 1750 c3 -5 13 -10 21 -10 8 0 12 5 9 10 -3 6 -13 10 -21 10 -8
0 -12 -4 -9 -10z"/>
<path d="M3047 1749 c7 -7 15 -10 18 -7 3 3 -2 9 -12 12 -14 6 -15 5 -6 -5z"/>
<path d="M536 1735 c3 -7 12 -16 19 -19 9 -3 12 0 9 9 -3 7 -12 16 -19 19 -9
3 -12 0 -9 -9z"/>
<path d="M1817 1739 c7 -7 15 -10 18 -7 3 3 -2 9 -12 12 -14 6 -15 5 -6 -5z"/>
<path d="M2176 1733 c-6 -14 -5 -15 5 -6 7 7 10 15 7 18 -3 3 -9 -2 -12 -12z"/>
<path d="M1509 1732 c7 -5 11 -14 8 -19 -3 -5 7 -7 25 -5 32 5 25 13 -22 26
-17 5 -21 4 -11 -2z"/>
<path d="M4345 1730 c3 -5 8 -10 11 -10 2 0 4 5 4 10 0 6 -5 10 -11 10 -5 0
-7 -4 -4 -10z"/>
<path d="M3349 1709 c18 -11 35 -18 38 -15 5 5 -50 36 -64 36 -4 0 7 -9 26
-21z"/>
<path d="M1890 1712 c0 -8 87 -43 105 -41 9 0 -91 49 -101 49 -2 0 -4 -4 -4
-8z"/>
<path d="M1595 1700 c27 -12 43 -12 25 0 -8 5 -22 9 -30 9 -10 0 -8 -3 5 -9z"/>
<path d="M2309 1685 c18 -8 38 -15 45 -15 6 1 -4 7 -23 15 -18 8 -38 15 -45
15 -6 -1 4 -7 23 -15z"/>
<path d="M1097 1648 c-25 -38 -32 -59 -28 -81 1 -5 -9 -22 -21 -40 -31 -44
-32 -62 -2 -76 32 -14 42 -3 75 77 12 28 28 52 35 52 19 0 18 -13 -5 -41 -35
-45 -63 -109 -49 -113 7 -2 30 -9 50 -15 21 -7 42 -9 48 -6 5 3 10 2 10 -3 0
-6 17 -13 38 -16 41 -8 82 -20 157 -47 75 -26 217 -49 185 -29 -8 5 -18 6 -23
3 -13 -8 2 36 25 75 21 35 31 36 90 6 31 -16 41 -18 34 -5 -3 4 6 13 19 19 14
7 25 17 25 24 0 9 -3 8 -10 -2 -9 -13 -14 -8 -12 11 1 4 -8 5 -18 2 -11 -3
-31 2 -45 11 -13 9 -30 16 -37 16 -7 0 -1 -8 15 -18 15 -9 27 -20 27 -24 0 -4
7 -5 15 -2 9 4 15 0 15 -10 0 -21 0 -21 -76 14 -48 21 -65 34 -61 44 5 12 1
13 -18 6 -19 -7 -23 -6 -18 5 3 8 9 13 13 10 5 -3 6 4 3 14 -4 16 -8 17 -18 8
-7 -7 -13 -14 -12 -17 1 -8 -22 -60 -27 -60 -7 0 -1 22 17 64 21 47 21 52 2
36 -8 -7 -15 -19 -15 -26 0 -8 -3 -14 -7 -14 -5 0 -19 -18 -33 -40 -13 -22
-28 -40 -33 -40 -5 0 -4 6 2 14 8 10 9 16 1 21 -6 3 -8 12 -4 18 3 7 -1 4 -9
-5 -8 -10 -16 -18 -19 -18 -6 0 37 93 64 138 l20 33 34 -20 c19 -12 36 -16 39
-10 4 5 -2 12 -12 16 -10 4 -32 17 -49 29 l-30 23 -39 -65 c-32 -56 -36 -69
-27 -85 7 -11 11 -19 10 -19 -2 0 -27 9 -57 20 -29 12 -55 19 -57 17 -3 -2 17
-12 43 -22 58 -22 55 -19 48 -37 -4 -10 -14 -14 -26 -11 -10 3 -19 0 -19 -6 0
-6 5 -11 10 -11 6 0 10 -7 10 -16 0 -10 -6 -14 -15 -10 -9 3 -15 0 -15 -9 0
-20 -18 -19 -66 4 -21 10 -55 22 -74 26 -19 4 -42 11 -50 16 -23 13 69 -1 109
-17 18 -8 36 -14 40 -14 14 0 -67 48 -92 54 -24 6 -27 9 -17 21 9 11 10 19 1
28 -8 10 -7 19 5 33 8 10 13 14 10 7 -5 -9 4 -10 30 -6 21 4 35 2 32 -3 -4 -5
8 -10 25 -11 18 -1 42 -8 55 -15 19 -10 25 -9 32 2 13 20 12 33 0 25 -5 -3 -3
10 5 29 21 49 19 63 -5 41 -20 -18 -21 -18 -14 1 7 17 6 17 -9 5 -9 -7 -17
-20 -17 -27 0 -17 -2 -17 -34 -3 -14 7 -23 15 -21 20 3 4 -4 5 -14 2 -11 -3
-28 4 -40 16 -12 12 -34 21 -51 21 -16 0 -33 7 -37 15 -7 12 -15 6 -36 -27z
m73 -23 c6 -8 15 -14 18 -13 28 3 63 -5 76 -17 8 -9 18 -16 21 -15 20 1 25 -2
25 -15 0 -14 -3 -14 -30 0 -16 8 -31 15 -32 14 -8 -5 -48 14 -48 22 0 6 -4 7
-10 4 -5 -3 -20 0 -32 7 -13 7 -27 11 -31 10 -5 -1 -6 2 -2 8 9 14 31 12 45
-5z m381 -178 c15 -11 14 -15 -5 -43 -14 -21 -26 -29 -37 -25 -15 5 -16 9 -2
44 17 40 20 42 44 24z m49 -23 c0 -7 -51 -94 -55 -94 -7 0 4 39 19 69 14 27
36 42 36 25z"/>
<path d="M1495 1680 c-3 -5 1 -10 10 -10 9 0 13 5 10 10 -3 6 -8 10 -10 10 -2
0 -7 -4 -10 -10z"/>
<path d="M2110 1669 c-7 -11 -10 -23 -7 -25 2 -2 9 7 15 21 14 30 7 33 -8 4z"/>
<path d="M784 1665 c-7 -7 -8 -20 -2 -35 6 -15 5 -26 -3 -31 -8 -5 -7 -8 2
-13 8 -3 2 -4 -13 -1 -40 8 -35 -1 14 -25 48 -23 61 -25 55 -7 -2 6 7 27 20
45 14 18 23 39 20 46 -8 19 -80 36 -93 21z m56 -65 c0 -5 -2 -10 -4 -10 -3 0
-8 5 -11 10 -3 6 -1 10 4 10 6 0 11 -4 11 -10z"/>
<path d="M2036 1671 c-4 -7 -5 -15 -2 -18 9 -9 19 4 14 18 -4 11 -6 11 -12 0z"/>
<path d="M2946 1673 c-6 -6 23 -32 36 -33 4 0 5 6 2 14 -6 16 -29 28 -38 19z"/>
<path d="M2390 1660 c0 -5 5 -10 11 -10 5 0 7 5 4 10 -3 6 -8 10 -11 10 -2 0
-4 -4 -4 -10z"/>
<path d="M2675 1657 c31 -20 75 -37 75 -29 -1 8 -66 42 -83 42 -6 0 -3 -6 8
-13z"/>
<path d="M1065 1649 c-4 -6 -5 -12 -2 -15 2 -3 7 2 10 11 7 17 1 20 -8 4z"/>
<path d="M1812 1638 c-6 -13 -25 -47 -41 -75 -17 -29 -26 -53 -22 -53 5 0 15
-2 23 -5 15 -6 39 40 32 60 -3 7 2 30 11 50 17 42 15 58 -3 23z m-12 -88 c0
-5 -5 -10 -11 -10 -5 0 -7 5 -4 10 3 6 8 10 11 10 2 0 4 -4 4 -10z"/>
<path d="M4232 1626 c24 -24 42 -34 50 -29 7 4 19 8 27 10 25 3 36 22 17 29
-10 4 -22 2 -29 -5 -17 -17 -48 -13 -76 11 -14 12 -9 5 11 -16z"/>
<path d="M3006 1625 c4 -8 15 -15 27 -15 23 0 22 2 -10 19 -19 10 -22 9 -17
-4z"/>
<path d="M1750 1621 c0 -4 -11 -25 -25 -45 -14 -21 -23 -42 -20 -47 10 -14 22
-11 28 9 3 9 12 34 21 55 9 21 12 37 6 37 -5 0 -10 -4 -10 -9z"/>
<path d="M1040 1609 c0 -5 5 -7 10 -4 6 3 10 8 10 11 0 2 -4 4 -10 4 -5 0 -10
-5 -10 -11z"/>
<path d="M4030 1609 c0 -5 10 -13 23 -18 13 -5 29 -16 36 -25 7 -9 18 -16 24
-16 16 0 -23 38 -55 54 -15 8 -28 10 -28 5z"/>
<path d="M1823 1595 c-9 -24 1 -27 15 -5 8 13 8 20 2 20 -6 0 -13 -7 -17 -15z"/>
<path d="M2444 1596 c11 -9 24 -16 30 -16 12 0 7 5 -24 19 -24 11 -24 11 -6
-3z"/>
<path d="M2674 1595 c11 -8 24 -15 30 -15 5 0 1 7 -10 15 -10 8 -23 14 -29 14
-5 0 -1 -6 9 -14z"/>
<path d="M3730 1601 c0 -5 7 -12 16 -15 14 -5 15 -4 4 9 -14 17 -20 19 -20 6z"/>
<path d="M2162 1584 c-5 -8 -15 -16 -23 -18 -8 -1 -23 -7 -34 -14 -19 -11 -18
-11 7 -12 15 0 30 -5 33 -10 4 -7 -2 -9 -19 -4 -14 3 -38 3 -53 -1 -26 -6 -25
-7 25 -32 34 -16 49 -30 45 -39 -3 -8 -10 -11 -16 -7 -6 3 -7 1 -3 -5 4 -7 2
-12 -4 -12 -6 0 -8 -5 -5 -11 5 -6 13 -2 23 13 9 13 22 29 29 36 7 8 11 17 8
22 -3 5 0 10 6 12 7 2 13 25 14 51 2 43 1 46 -12 30 -14 -17 -14 -17 -9 0 7
21 0 22 -12 1z"/>
<path d="M1570 1580 c0 -5 6 -10 14 -10 8 0 23 -3 33 -6 10 -3 7 2 -7 10 -30
18 -40 20 -40 6z"/>
<path d="M2210 1570 c-6 -12 -9 -24 -7 -27 3 -2 11 5 17 17 6 12 9 24 7 27 -3
2 -11 -5 -17 -17z"/>
<path d="M2725 1570 c3 -5 11 -10 17 -10 21 0 54 -35 50 -55 -3 -18 -2 -18 13
3 20 27 22 24 -32 51 -47 23 -57 26 -48 11z"/>
<path d="M1930 1561 c0 -8 52 -22 58 -16 2 1 -11 7 -27 13 -17 6 -31 7 -31 3z"/>
<path d="M2254 1555 c8 -8 18 -15 22 -15 5 0 46 -18 92 -41 53 -26 90 -38 100
-34 14 6 13 9 -9 15 -14 4 -41 14 -60 23 -165 74 -168 75 -145 52z"/>
<path d="M2596 1563 c-10 -10 -7 -25 4 -18 10 6 66 -20 88 -42 8 -8 27 -17 43
-20 16 -3 32 -10 35 -14 7 -12 24 -11 24 0 0 5 -26 22 -57 36 -32 15 -74 35
-95 45 -20 10 -39 16 -42 13z"/>
<path d="M1654 1548 c10 -6 22 -6 26 -2 5 5 -3 10 -18 11 -22 1 -24 0 -8 -9z"/>
<path d="M2430 1540 c19 -11 40 -19 45 -19 6 0 -6 8 -25 19 -19 11 -39 19 -45
19 -5 0 6 -8 25 -19z"/>
<path d="M970 1525 c-12 -33 -7 -55 14 -55 14 0 27 21 25 43 0 7 -4 2 -9 -10
-10 -23 -30 -32 -30 -12 0 6 5 19 11 31 6 11 8 22 5 25 -3 3 -10 -7 -16 -22z"/>
<path d="M1810 1444 c-23 -42 -39 -78 -36 -82 3 -3 8 -3 11 -1 7 8 75 159 71
159 -2 0 -23 -34 -46 -76z"/>
<path d="M2833 1485 c-13 -19 -19 -36 -14 -39 9 -6 48 60 40 68 -2 2 -14 -11
-26 -29z"/>
<path d="M498 1497 c14 -16 82 -60 82 -52 0 2 -21 19 -47 36 -27 18 -42 26
-35 16z"/>
<path d="M1226 1496 c3 -9 11 -16 16 -16 13 0 5 23 -10 28 -7 2 -10 -2 -6 -12z"/>
<path d="M2975 1500 c3 -5 11 -10 16 -10 6 0 7 5 4 10 -3 6 -11 10 -16 10 -6
0 -7 -4 -4 -10z"/>
<path d="M2210 1456 c-12 -20 -26 -36 -30 -36 -16 0 -51 -44 -46 -57 3 -7 -1
-10 -9 -6 -8 3 -12 9 -9 14 5 8 -12 13 -43 12 -7 -1 -13 3 -13 9 0 5 -4 7 -10
3 -5 -3 -26 4 -47 15 -44 24 -67 27 -36 5 l22 -16 -28 -52 c-44 -84 -45 -82 8
-83 42 0 44 1 19 10 -16 5 -28 15 -28 22 0 17 28 82 38 88 9 5 67 -14 143 -47
27 -12 36 -13 36 -3 0 6 14 43 32 80 35 75 36 98 1 42z"/>
<path d="M2531 1461 c-12 -16 -17 -32 -12 -35 9 -6 45 53 37 61 -2 2 -13 -9
-25 -26z"/>
<path d="M2265 1440 c-14 -22 -30 -40 -35 -40 -5 0 -6 -8 -3 -17 5 -13 2 -15
-11 -10 -10 4 -15 3 -11 -4 4 -5 1 -17 -6 -25 -10 -12 -9 -18 3 -30 14 -14 18
-11 43 35 16 28 32 51 36 51 5 0 6 7 3 15 -3 8 -2 20 2 27 9 15 14 38 8 38 -2
0 -15 -18 -29 -40z"/>
<path d="M2680 1476 c0 -2 7 -7 16 -10 8 -3 12 -2 9 4 -6 10 -25 14 -25 6z"/>
<path d="M3050 1455 c33 -19 50 -18 26 0 -11 8 -27 15 -35 15 -10 -1 -7 -6 9
-15z"/>
<path d="M1870 1440 c-6 -11 -8 -20 -6 -20 3 0 10 9 16 20 6 11 8 20 6 20 -3
0 -10 -9 -16 -20z"/>
<path d="M2734 1445 c11 -8 22 -12 25 -9 6 6 -19 24 -34 24 -5 -1 -1 -7 9 -15z"/>
<path d="M3842 1444 c10 -10 20 -15 24 -12 3 4 -5 12 -18 18 -22 12 -22 12 -6
-6z"/>
<path d="M1910 1440 c8 -5 20 -10 25 -10 6 0 3 5 -5 10 -8 5 -19 10 -25 10 -5
0 -3 -5 5 -10z"/>
<path d="M597 1429 c7 -7 15 -10 18 -7 3 3 -2 9 -12 12 -14 6 -15 5 -6 -5z"/>
<path d="M2890 1425 c-7 -9 -8 -15 -2 -15 5 0 12 7 16 15 3 8 4 15 2 15 -2 0
-9 -7 -16 -15z"/>
<path d="M3185 1420 c-20 -22 -15 -36 9 -27 8 3 14 15 13 26 -2 25 0 25 -22 1z"/>
<path d="M2780 1420 c0 -5 7 -10 15 -10 8 0 15 -5 15 -11 0 -5 4 -7 10 -4 5 3
19 1 30 -5 34 -18 22 -3 -16 19 -39 23 -54 26 -54 11z"/>
<path d="M647 1399 c7 -7 15 -10 18 -7 3 3 -2 9 -12 12 -14 6 -15 5 -6 -5z"/>
<path d="M1836 1386 c-9 -14 -16 -30 -16 -36 0 -13 -47 -13 -55 0 -3 6 -20 10
-38 10 -42 0 -24 -17 37 -35 l47 -14 11 27 c7 15 18 35 27 45 8 9 12 19 9 22
-3 3 -13 -6 -22 -19z"/>
<path d="M2420 1405 c0 -10 79 -44 84 -37 3 5 -11 16 -30 25 -35 17 -54 21
-54 12z"/>
<path d="M3380 1406 c0 -3 9 -10 20 -16 11 -6 20 -8 20 -6 0 3 -9 10 -20 16
-11 6 -20 8 -20 6z"/>
<path d="M687 1379 c7 -7 15 -10 18 -7 3 3 -2 9 -12 12 -14 6 -15 5 -6 -5z"/>
<path d="M2350 1371 c90 -50 129 -60 137 -36 5 16 -36 36 -81 39 -23 2 -52 6
-66 10 -18 5 -15 1 10 -13z"/>
<path d="M2610 1381 c0 -5 6 -11 13 -14 8 -3 1 -19 -21 -50 -29 -41 -31 -47
-15 -47 12 0 23 12 31 33 23 61 22 61 115 12 50 -26 89 -41 92 -35 3 6 -1 10
-10 10 -9 0 -13 5 -10 11 4 6 1 9 -6 8 -8 -2 -51 16 -96 39 -89 45 -93 47 -93
33z"/>
<path d="M2740 1386 c0 -2 7 -7 16 -10 8 -3 12 -2 9 4 -6 10 -25 14 -25 6z"/>
<path d="M2975 1373 c3 -7 2 -13 -4 -13 -6 0 -18 -15 -27 -32 -9 -18 -22 -36
-28 -40 -7 -5 -5 -8 6 -8 9 0 25 14 35 30 21 36 32 37 83 5 22 -14 48 -25 57
-25 10 1 -9 15 -42 32 -33 17 -66 38 -73 47 -7 9 -11 10 -7 4z"/>
<path d="M734 1356 c11 -9 24 -16 30 -16 12 0 7 5 -24 19 -24 11 -24 11 -6 -3z"/>
<path d="M3440 1365 c0 -2 10 -10 23 -16 20 -11 21 -11 8 4 -13 16 -31 23 -31
12z"/>
<path d="M2805 1350 c3 -5 11 -10 16 -10 6 0 7 5 4 10 -3 6 -11 10 -16 10 -6
0 -7 -4 -4 -10z"/>
<path d="M3256 1348 c3 -4 9 -8 15 -8 5 0 9 4 9 8 0 5 -7 9 -15 9 -8 0 -12 -4
-9 -9z"/>
<path d="M1225 1330 c-3 -5 -2 -10 4 -10 5 0 13 5 16 10 3 6 2 10 -4 10 -5 0
-13 -4 -16 -10z"/>
<path d="M1993 1322 c-32 -5 -29 -20 5 -28 15 -4 33 -11 40 -17 8 -6 12 -5 12
5 0 21 -32 43 -57 40z"/>
<path d="M2551 1298 c-13 -13 -21 -18 -18 -13 3 7 -9 11 -30 10 -20 0 -38 -6
-40 -12 -3 -9 10 -13 45 -13 42 0 50 3 60 25 14 31 13 31 -17 3z"/>
<path d="M830 1306 c0 -2 9 -6 20 -9 11 -3 18 -1 14 4 -5 9 -34 13 -34 5z"/>
<path d="M1320 1300 c-8 -5 -10 -10 -5 -10 6 0 17 5 25 10 8 5 11 10 5 10 -5
0 -17 -5 -25 -10z"/>
<path d="M1717 1296 c-4 -9 3 -16 16 -20 33 -9 57 -7 57 4 0 6 -9 10 -20 10
-11 0 -20 5 -20 10 0 15 -27 12 -33 -4z"/>
<path d="M2850 1295 c-10 -13 -9 -15 8 -15 15 0 20 5 16 15 -4 8 -7 15 -9 15
-1 0 -8 -7 -15 -15z"/>
<path d="M1446 1281 c-18 -7 -18 -8 -2 -14 19 -8 36 -1 36 14 0 10 -7 11 -34
0z"/>
<path d="M1537 1260 c-16 -16 -15 -17 15 -18 21 0 28 2 18 8 -10 6 -7 9 11 12
l24 4 -25 5 c-16 3 -32 -1 -43 -11z"/>
<path d="M2079 1267 c12 -12 101 -17 101 -5 0 9 -2 9 -68 12 -26 1 -39 -1 -33
-7z"/>
<path d="M2693 1273 c9 -2 23 -2 30 0 6 3 -1 5 -18 5 -16 0 -22 -2 -12 -5z"/>
<path d="M933 1264 c10 -10 140 -55 145 -50 2 2 -21 13 -50 24 -76 28 -104 36
-95 26z"/>
<path d="M1666 1253 c-3 -8 -10 -12 -15 -9 -5 4 -17 3 -27 -1 -16 -6 -16 -7 2
-14 30 -12 44 -10 44 5 0 8 6 13 13 12 19 -2 24 17 5 20 -9 1 -19 -5 -22 -13z"/>
<path d="M3125 1260 c3 -5 11 -10 16 -10 6 0 7 5 4 10 -3 6 -11 10 -16 10 -6
0 -7 -4 -4 -10z"/>
<path d="M3190 1251 c0 -5 9 -11 20 -14 13 -3 20 0 20 9 0 8 -9 14 -20 14 -11
0 -20 -4 -20 -9z"/>
<path d="M2991 1236 c-10 -12 -8 -13 8 -9 12 3 21 9 21 14 0 14 -16 11 -29 -5z"/>
<path d="M2024 1225 c-10 -8 -14 -15 -7 -15 6 0 20 -3 30 -6 15 -5 15 -4 3 5
-8 5 -11 13 -7 17 3 4 13 1 22 -6 8 -7 15 -8 15 -2 0 5 -7 13 -16 16 -20 8
-17 8 -40 -9z"/>
<path d="M2120 1231 c-29 -8 -33 -34 -6 -39 11 -3 16 0 12 7 -5 7 2 11 16 11
34 0 55 15 33 24 -19 7 -20 7 -55 -3z"/>
<path d="M1756 1221 c-19 -7 -19 -8 2 -13 12 -4 20 -2 16 3 -8 13 10 11 24 -3
9 -9 12 -8 12 5 0 18 -21 21 -54 8z"/>
<path d="M3948 1223 c7 -3 16 -2 19 1 4 3 -2 6 -13 5 -11 0 -14 -3 -6 -6z"/>
<path d="M1220 1211 c0 -6 4 -13 10 -16 6 -3 7 1 4 9 -7 18 -14 21 -14 7z"/>
<path d="M1842 1209 c2 -7 10 -15 17 -17 8 -3 12 1 9 9 -2 7 -10 15 -17 17 -8
3 -12 -1 -9 -9z"/>
<path d="M1985 1211 c-3 -5 -1 -12 5 -16 5 -3 10 1 10 9 0 18 -6 21 -15 7z"/>
<path d="M2737 1209 c7 -7 15 -10 18 -7 3 3 -2 9 -12 12 -14 6 -15 5 -6 -5z"/>
<path d="M1090 1206 c0 -7 30 -20 73 -30 17 -4 26 -3 23 2 -3 5 -18 12 -33 15
-16 3 -36 9 -45 12 -10 4 -18 4 -18 1z"/>
<path d="M2334 1198 c10 -6 22 -6 26 -2 5 5 -3 10 -18 11 -22 1 -24 0 -8 -9z"/>
<path d="M3855 1200 c-25 -11 1 -11 35 0 20 6 21 8 5 8 -11 0 -29 -3 -40 -8z"/>
<path d="M2250 1190 c-8 -5 -10 -10 -5 -10 6 0 17 5 25 10 8 5 11 10 5 10 -5
0 -17 -5 -25 -10z"/>
<path d="M1410 1170 c-9 -6 -10 -10 -3 -10 6 0 15 5 18 10 8 12 4 12 -15 0z"/>
<path d="M3788 1173 c7 -3 16 -2 19 1 4 3 -2 6 -13 5 -11 0 -14 -3 -6 -6z"/>
<path d="M1210 1166 c0 -5 73 -28 135 -42 54 -12 19 6 -41 21 -32 9 -67 18
-76 21 -10 3 -18 3 -18 0z"/>
<path d="M3748 1163 c7 -3 16 -2 19 1 4 3 -2 6 -13 5 -11 0 -14 -3 -6 -6z"/>
<path d="M3560 1129 c-74 -16 -169 -33 -210 -39 -202 -29 -317 -43 -440 -55
l-135 -14 125 4 c113 4 416 40 545 65 195 38 324 70 270 68 -11 0 -81 -14
-155 -29z"/>
<path d="M1560 1140 c0 -5 9 -14 20 -20 19 -10 20 -10 8 9 -13 22 -28 28 -28
11z"/>
<path d="M1455 1100 c101 -31 563 -81 730 -78 86 1 73 3 -94 14 -107 7 -222
18 -256 24 -56 10 -132 18 -193 20 -13 0 -21 3 -19 8 3 4 -16 8 -41 8 -26 1
-72 4 -102 8 -42 4 -48 3 -25 -4z"/>
<path d="M1825 1091 c17 -11 44 -22 60 -26 26 -5 27 -4 8 4 -25 11 -32 27 -8
17 8 -3 15 -1 15 3 0 14 -23 19 -42 9 -12 -5 -18 -5 -18 2 0 5 -10 10 -22 10
-21 0 -21 -2 7 -19z"/>
<path d="M2481 1081 c-11 -7 -10 -11 7 -20 30 -16 40 -13 17 5 -19 15 -18 16
15 9 26 -4 31 -3 20 4 -18 13 -40 14 -59 2z"/>
<path d="M2230 1076 c0 -2 11 -6 25 -8 13 -3 22 -1 19 3 -5 9 -44 13 -44 5z"/>
<path d="M2595 1070 c-3 -5 0 -10 9 -10 8 0 23 -3 33 -6 16 -6 16 -5 -2 9 -24
19 -32 21 -40 7z"/>
<path d="M2295 1050 c-3 -5 -2 -10 4 -10 5 0 13 5 16 10 3 6 2 10 -4 10 -5 0
-13 -4 -16 -10z"/>
<path d="M2424 1043 c4 -8 -9 -14 -41 -18 -86 -11 -80 -13 52 -12 72 0 103 2
71 4 -40 3 -64 10 -74 21 -7 9 -11 12 -8 5z"/>
<path d="M2720 1040 c0 -5 5 -10 10 -10 6 0 10 5 10 10 0 6 -4 10 -10 10 -5 0
-10 -4 -10 -10z"/>
<path d="M2683 1013 c15 -2 39 -2 55 0 15 2 2 4 -28 4 -30 0 -43 -2 -27 -4z"/>
</g>
</svg>
